<?xml version="1.0" encoding="UTF-8" standalone="no"?>
<svg
   viewBox="0 0 3543.7019 22571.758"
   version="1.1"
   id="svg194"
   width="3543.7019"
   height="22571.758"
   xmlns="http://www.w3.org/2000/svg"
   xmlns:svg="http://www.w3.org/2000/svg">
  <defs
     id="defs194" />
  <path
     d="m 59.529,15.537 v -4.782 0 a 1.18,1.18 0 0 1 -0.54,-0.143 v 5.068 a 1.177,1.177 0 0 1 0.54,-0.143 z"
     style="fill:#004e29"
     id="path1" />
  <path
     d="m 59.529,22.738 v -4.782 0 a 1.18,1.18 0 0 1 -0.54,-0.143 v 5.068 a 1.165,1.165 0 0 1 0.54,-0.143 z"
     style="fill:#004e29"
     id="path2" />
  <path
     d="m 59.529,29.938 v -4.78 0 a 1.18,1.18 0 0 1 -0.54,-0.143 v 5.066 a 1.177,1.177 0 0 1 0.54,-0.143 z"
     style="fill:#004e29"
     id="path3" />
  <path
     d="m 59.529,37.137 v -4.78 0 a 1.18,1.18 0 0 1 -0.54,-0.143 v 5.066 a 1.177,1.177 0 0 1 0.54,-0.143 z"
     style="fill:#004e29"
     id="path4" />
  <path
     d="m 59.529,44.336 v -4.78 0 a 1.18,1.18 0 0 1 -0.54,-0.143 v 5.066 a 1.177,1.177 0 0 1 0.54,-0.143 z"
     style="fill:#004e29"
     id="path5" />
  <path
     d="m 59.529,51.536 v -4.78 0 a 1.181,1.181 0 0 1 -0.54,-0.144 v 5.067 a 1.177,1.177 0 0 1 0.54,-0.143 z"
     style="fill:#004e29"
     id="path6" />
  <path
     d="m 59.529,58.736 v -4.781 0 a 1.18,1.18 0 0 1 -0.54,-0.143 v 5.067 a 1.177,1.177 0 0 1 0.54,-0.143 z"
     style="fill:#004e29"
     id="path7" />
  <path
     d="m 59.529,65.936 v -4.781 0 a 1.18,1.18 0 0 1 -0.54,-0.143 v 5.067 a 1.177,1.177 0 0 1 0.54,-0.143 z"
     style="fill:#004e29"
     id="path8" />
  <path
     d="m 59.529,73.137 v -4.781 0 a 1.18,1.18 0 0 1 -0.54,-0.143 v 5.067 a 1.177,1.177 0 0 1 0.54,-0.143 z"
     style="fill:#004e29"
     id="path9" />
  <path
     d="m 59.529,80.337 v -4.781 0 a 1.18,1.18 0 0 1 -0.54,-0.143 v 5.066 a 1.177,1.177 0 0 1 0.54,-0.143 v 0"
     style="fill:#004e29"
     id="path10" />
  <path
     d="m 59.529,87.536 v -4.78 0 a 1.181,1.181 0 0 1 -0.54,-0.144 v 5.067 a 1.177,1.177 0 0 1 0.54,-0.143 z"
     style="fill:#004e29"
     id="path11" />
  <path
     d="m 59.529,94.736 v -4.781 0 a 1.18,1.18 0 0 1 -0.54,-0.143 v 5.067 a 1.177,1.177 0 0 1 0.54,-0.143 z"
     style="fill:#004e29"
     id="path12" />
  <path
     d="m 59.529,101.936 v -4.781 0 a 1.18,1.18 0 0 1 -0.54,-0.143 v 5.067 a 1.177,1.177 0 0 1 0.54,-0.143 z"
     style="fill:#004e29"
     id="path13" />
  <path
     d="m 59.529,109.137 v -4.781 0 a 1.18,1.18 0 0 1 -0.54,-0.143 v 5.067 a 1.177,1.177 0 0 1 0.54,-0.143 z"
     style="fill:#004e29"
     id="path14" />
  <path
     d="m 59.529,116.337 v -4.781 0 a 1.18,1.18 0 0 1 -0.54,-0.143 v 5.066 a 1.176,1.176 0 0 1 0.54,-0.142 z"
     style="fill:#004e29"
     id="path15" />
  <path
     d="m 59.529,123.537 v -4.781 0 a 1.169,1.169 0 0 1 -0.54,-0.144 v 5.067 a 1.176,1.176 0 0 1 0.54,-0.142 v 0"
     style="fill:#004e29"
     id="path16" />
  <path
     d="m 59.529,130.736 v -4.781 0 a 1.18,1.18 0 0 1 -0.54,-0.143 v 5.067 a 1.177,1.177 0 0 1 0.54,-0.143 z"
     style="fill:#004e29"
     id="path17" />
  <path
     d="m 59.529,137.936 v -4.781 0 a 1.18,1.18 0 0 1 -0.54,-0.143 v 5.067 a 1.177,1.177 0 0 1 0.54,-0.143 z"
     style="fill:#004e29"
     id="path18" />
  <path
     d="m 59.529,145.136 v -4.78 0 a 1.18,1.18 0 0 1 -0.54,-0.143 v 5.065 a 1.176,1.176 0 0 1 0.54,-0.142 z"
     style="fill:#004e29"
     id="path19" />
  <path
     d="m 59.529,147.555 v 0 a 1.18,1.18 0 0 1 -0.54,-0.143 v 1.577 a 0.709,0.709 0 0 1 -0.709,0.709 H 38.032 a 1.174,1.174 0 0 1 0.143,0.54 h 20.219 a 1.134,1.134 0 0 0 1.134,-1.135 v -1.549 z"
     style="fill:#004e29"
     id="path20" />
  <path
     d="m 23.631,149.7 a 1.178,1.178 0 0 1 0.143,0.541 h 4.78 a 1.183,1.183 0 0 1 0.142,-0.541 z"
     style="fill:#004e29"
     id="path21" />
  <path
     d="m 30.831,149.7 a 1.178,1.178 0 0 1 0.143,0.541 h 4.782 a 1.183,1.183 0 0 1 0.142,-0.541 z"
     style="fill:#004e29"
     id="path22" />
  <path
     d="m 59.2,6 -0.416,0.417 a 0.707,0.707 0 0 1 0.208,0.5 V 8.48 a 1.177,1.177 0 0 1 0.54,-0.143 v 0 -1.532 A 1.126,1.126 0 0 0 59.2,6"
     style="fill:#004e29"
     id="path23" />
  <path
     d="M 21.5,149.7 H 1.251 a 0.708,0.708 0 0 1 -0.5,-0.208 l -0.417,0.417 a 1.134,1.134 0 0 0 0.8,0.332 h 20.221 a 1.178,1.178 0 0 1 0.143,-0.541"
     style="fill:#004e29"
     id="path24" />
  <path
     d="m 0.542,6.921 v 1.558 a 1.2,1.2 0 0 1 0.67,1.067 1.2,1.2 0 0 1 -0.67,1.066 v 5.069 a 1.183,1.183 0 0 1 0,2.132 v 5.068 a 1.2,1.2 0 0 1 0.67,1.066 1.2,1.2 0 0 1 -0.67,1.068 v 5.065 a 1.2,1.2 0 0 1 0.67,1.067 1.2,1.2 0 0 1 -0.67,1.067 v 5.065 a 1.2,1.2 0 0 1 0.67,1.068 1.2,1.2 0 0 1 -0.67,1.066 v 5.066 a 1.2,1.2 0 0 1 0.67,1.068 1.2,1.2 0 0 1 -0.67,1.066 v 5.067 a 1.2,1.2 0 0 1 0.67,1.066 1.2,1.2 0 0 1 -0.67,1.067 v 5.067 a 1.2,1.2 0 0 1 0.67,1.066 1.206,1.206 0 0 1 -0.67,1.068 v 5.066 a 1.2,1.2 0 0 1 0.67,1.066 1.2,1.2 0 0 1 -0.67,1.067 v 5.066 a 1.2,1.2 0 0 1 0.67,1.068 1.2,1.2 0 0 1 -0.67,1.066 v 5.066 a 1.2,1.2 0 0 1 0.67,1.068 1.2,1.2 0 0 1 -0.67,1.066 v 5.067 a 1.2,1.2 0 0 1 0.67,1.066 1.2,1.2 0 0 1 -0.67,1.067 v 5.067 a 1.2,1.2 0 0 1 0.67,1.066 1.206,1.206 0 0 1 -0.67,1.068 v 5.066 a 1.2,1.2 0 0 1 0.67,1.066 1.2,1.2 0 0 1 -0.67,1.067 v 5.066 a 1.2,1.2 0 0 1 0.67,1.068 1.2,1.2 0 0 1 -0.67,1.066 v 5.066 a 1.2,1.2 0 0 1 0.67,1.068 1.2,1.2 0 0 1 -0.67,1.066 v 5.067 a 1.2,1.2 0 0 1 0.67,1.066 1.2,1.2 0 0 1 -0.67,1.067 v 5.067 a 1.2,1.2 0 0 1 0.67,1.066 1.2,1.2 0 0 1 -0.67,1.068 v 5.066 a 1.2,1.2 0 0 1 0.67,1.066 1.2,1.2 0 0 1 -0.67,1.067 v 5.065 a 1.2,1.2 0 0 1 0.67,1.068 1.2,1.2 0 0 1 -0.67,1.066 v 1.577 a 0.708,0.708 0 0 0 0.709,0.708 H 21.5 a 1.185,1.185 0 0 1 2.134,0 H 28.7 a 1.185,1.185 0 0 1 2.134,0 H 35.9 a 1.185,1.185 0 0 1 2.134,0 h 20.245 a 0.708,0.708 0 0 0 0.708,-0.708 v -1.577 a 1.185,1.185 0 0 1 0,-2.134 v -5.064 a 1.185,1.185 0 0 1 0,-2.134 v -5.066 a 1.185,1.185 0 0 1 0,-2.134 v -5.067 a 1.185,1.185 0 0 1 0,-2.133 v -5.067 a 1.185,1.185 0 0 1 0,-2.134 v -5.065 a 1.185,1.185 0 0 1 0,-2.134 v -5.066 a 1.185,1.185 0 0 1 0,-2.134 v -5.066 a 1.185,1.185 0 0 1 0,-2.134 v -5.067 a 1.185,1.185 0 0 1 0,-2.133 v -5.067 a 1.185,1.185 0 0 1 0,-2.134 v -5.065 a 1.185,1.185 0 0 1 0,-2.134 v -5.066 a 1.185,1.185 0 0 1 0,-2.134 v -5.066 a 1.185,1.185 0 0 1 0,-2.134 v -5.067 a 1.185,1.185 0 0 1 0,-2.133 v -5.067 a 1.185,1.185 0 0 1 0,-2.133 v -5.066 a 1.185,1.185 0 0 1 0,-2.134 v -5.066 a 1.185,1.185 0 0 1 0,-2.134 v -5.065 a 1.185,1.185 0 0 1 0,-2.134 v -5.068 a 1.184,1.184 0 0 1 0,-2.132 v -5.069 a 1.185,1.185 0 0 1 0,-2.133 V 6.921 A 0.708,0.708 0 0 0 58.279,6.212 H 1.251 A 0.708,0.708 0 0 0 0.542,6.921 m 4.023,140.621 a 1.2,1.2 0 1 1 1.2,-1.2 1.2,1.2 0 0 1 -1.2,1.2 m 1.2,-8.4 a 1.2,1.2 0 1 1 -1.2,-1.2 1.2,1.2 0 0 1 1.2,1.2 m 0,-7.2 a 1.2,1.2 0 1 1 -1.2,-1.2 1.2,1.2 0 0 1 1.2,1.2 m 0,-7.2 a 1.2,1.2 0 1 1 -1.2,-1.2 1.2,1.2 0 0 1 1.2,1.2 m 0,-7.2 a 1.2,1.2 0 1 1 -1.2,-1.2 1.2,1.2 0 0 1 1.2,1.2 m 0,-7.2 a 1.2,1.2 0 1 1 -1.2,-1.2 1.2,1.2 0 0 1 1.2,1.2 m 0,-7.2 a 1.2,1.2 0 1 1 -1.2,-1.2 1.2,1.2 0 0 1 1.2,1.2 m 0,-7.2 a 1.2,1.2 0 1 1 -1.2,-1.2 1.2,1.2 0 0 1 1.2,1.2 m 0,-7.2 a 1.2,1.2 0 1 1 -1.2,-1.2 1.2,1.2 0 0 1 1.2,1.2 m 0,-7.2 a 1.2,1.2 0 1 1 -1.2,-1.2 1.2,1.2 0 0 1 1.2,1.2 m 0,-7.2 a 1.2,1.2 0 1 1 -1.2,-1.2 1.2,1.2 0 0 1 1.2,1.2 m 0,-7.2 a 1.2,1.2 0 1 1 -1.2,-1.2 1.2,1.2 0 0 1 1.2,1.2 m 0,-7.2 a 1.2,1.2 0 1 1 -1.2,-1.2 1.2,1.2 0 0 1 1.2,1.2 m 0,-7.2 a 1.2,1.2 0 1 1 -1.2,-1.2 1.2,1.2 0 0 1 1.2,1.2 m 0,-7.2 a 1.2,1.2 0 1 1 -1.2,-1.2 1.2,1.2 0 0 1 1.2,1.2 m 0,-7.2 a 1.2,1.2 0 1 1 -1.2,-1.2 1.2,1.2 0 0 1 1.2,1.2 m 0,-7.2 a 1.2,1.2 0 1 1 -1.2,-1.2 1.2,1.2 0 0 1 1.2,1.2 m 0,-7.2 a 1.2,1.2 0 1 1 -1.2,-1.2 1.2,1.2 0 0 1 1.2,1.2 m 0,-7.2 a 1.2,1.2 0 1 1 -1.2,-1.2 1.2,1.2 0 0 1 1.2,1.2 m 0,-7.2 a 1.2,1.2 0 1 1 -1.2,-1.2 1.2,1.2 0 0 1 1.2,1.2 m 7.86,137.4 a 2.52,2.52 0 1 1 2.519,-2.519 2.522,2.522 0 0 1 -2.519,2.519 m 0,-132.95 A 2.519,2.519 0 1 1 16.144,11.472 2.522,2.522 0 0 1 13.622,14 m 8.943,133.54 a 1.2,1.2 0 1 1 1.2,-1.2 1.2,1.2 0 0 1 -1.2,1.2 m 7.2,0 a 1.2,1.2 0 1 1 1.2,-1.2 1.2,1.2 0 0 1 -1.2,1.2 m 24,-1.195 a 1.2,1.2 0 1 1 1.2,1.2 1.2,1.2 0 0 1 -1.2,-1.2 m 0,-7.2 a 1.2,1.2 0 1 1 1.2,1.2 1.2,1.2 0 0 1 -1.2,-1.2 m 0,-7.2 a 1.2,1.2 0 1 1 1.2,1.2 1.2,1.2 0 0 1 -1.2,-1.2 m 0,-7.2 a 1.2,1.2 0 1 1 1.2,1.2 1.2,1.2 0 0 1 -1.2,-1.2 m 0,-7.2 a 1.2,1.2 0 1 1 1.2,1.2 1.2,1.2 0 0 1 -1.2,-1.2 m 0,-7.2 a 1.2,1.2 0 1 1 1.2,1.2 1.2,1.2 0 0 1 -1.2,-1.2 m 0,-7.2 a 1.2,1.2 0 1 1 1.2,1.2 1.2,1.2 0 0 1 -1.2,-1.2 m 0,-7.2 a 1.2,1.2 0 1 1 1.2,1.2 1.2,1.2 0 0 1 -1.2,-1.2 m 0,-7.2 a 1.2,1.2 0 1 1 1.2,1.2 1.2,1.2 0 0 1 -1.2,-1.2 m 0,-7.2 a 1.2,1.2 0 1 1 1.2,1.2 1.2,1.2 0 0 1 -1.2,-1.2 m 0,-7.2 a 1.2,1.2 0 1 1 1.2,1.2 1.2,1.2 0 0 1 -1.2,-1.2 m 0,-7.2 a 1.2,1.2 0 1 1 1.2,1.2 1.2,1.2 0 0 1 -1.2,-1.2 m 0,-7.2 a 1.2,1.2 0 1 1 1.2,1.2 1.2,1.2 0 0 1 -1.2,-1.2 m 0,-7.2 a 1.2,1.2 0 1 1 1.2,1.2 1.2,1.2 0 0 1 -1.2,-1.2 m 0,-7.2 a 1.2,1.2 0 1 1 1.2,1.2 1.2,1.2 0 0 1 -1.2,-1.2 m 0,-7.2 a 1.2,1.2 0 1 1 1.2,1.2 1.2,1.2 0 0 1 -1.2,-1.2 m 0,-7.2 a 1.2,1.2 0 1 1 1.2,1.2 1.2,1.2 0 0 1 -1.2,-1.2 m 0,-7.2 a 1.2,1.2 0 1 1 1.2,1.2 1.2,1.2 0 0 1 -1.2,-1.2 m 0,-7.2 a 1.2,1.2 0 1 1 1.2,1.2 1.2,1.2 0 0 1 -1.2,-1.2 m 0,-7.2 a 1.2,1.2 0 1 1 1.2,1.2 1.2,1.2 0 0 1 -1.2,-1.2 m -16.8,137.995 a 1.2,1.2 0 1 1 1.2,-1.2 1.2,1.2 0 0 1 -1.2,1.2 m 8.943,-0.591 a 2.52,2.52 0 1 1 2.519,-2.519 2.522,2.522 0 0 1 -2.519,2.519 m 0,-132.95 A 2.519,2.519 0 1 1 48.427,11.479 2.522,2.522 0 0 1 45.908,14"
     style="fill:#006837"
     id="path25" />
  <path
     d="M 58.4,5.671 H 1.134 A 1.134,1.134 0 0 0 0,6.805 v 1.531 0 A 1.162,1.162 0 0 1 0.54,8.48 V 6.921 A 0.709,0.709 0 0 1 1.249,6.212 h 57.03 a 0.7,0.7 0 0 1 0.5,0.208 L 59.2,6 A 1.131,1.131 0 0 0 58.4,5.668"
     style="fill:#33865f"
     id="path26" />
  <path
     d="m 0,17.956 v 4.782 0 a 1.158,1.158 0 0 1 0.54,0.143 V 17.813 A 1.17,1.17 0 0 1 0,17.956 Z"
     style="fill:#33865f"
     id="path27" />
  <path
     d="m 0,25.156 v 4.781 0 A 1.17,1.17 0 0 1 0.54,30.08 V 25.013 A 1.158,1.158 0 0 1 0,25.156 v 0"
     style="fill:#33865f"
     id="path28" />
  <path
     d="m 0,32.356 v 4.781 0 a 1.169,1.169 0 0 1 0.54,0.142 V 32.214 A 1.169,1.169 0 0 1 0,32.356 Z"
     style="fill:#33865f"
     id="path29" />
  <path
     d="m 0,39.556 v 4.781 0 A 1.17,1.17 0 0 1 0.54,44.48 V 39.413 A 1.17,1.17 0 0 1 0,39.556 Z"
     style="fill:#33865f"
     id="path30" />
  <path
     d="m 0,46.755 v 4.781 0 a 1.17,1.17 0 0 1 0.54,0.143 V 46.612 A 1.159,1.159 0 0 1 0,46.756 Z"
     style="fill:#33865f"
     id="path31" />
  <path
     d="m 0,53.955 v 4.781 0 a 1.17,1.17 0 0 1 0.54,0.143 V 53.812 A 1.17,1.17 0 0 1 0,53.955 Z"
     style="fill:#33865f"
     id="path32" />
  <path
     d="m 0,61.155 v 4.781 0 a 1.17,1.17 0 0 1 0.54,0.143 V 61.012 A 1.17,1.17 0 0 1 0,61.155 Z"
     style="fill:#33865f"
     id="path33" />
  <path
     d="m 0,68.355 v 4.781 0 a 1.17,1.17 0 0 1 0.54,0.143 V 68.212 A 1.17,1.17 0 0 1 0,68.355 Z"
     style="fill:#33865f"
     id="path34" />
  <path
     d="m 0,75.556 v 4.781 0 A 1.17,1.17 0 0 1 0.54,80.48 V 75.413 A 1.17,1.17 0 0 1 0,75.556 Z"
     style="fill:#33865f"
     id="path35" />
  <path
     d="m 0,82.755 v 4.781 0 a 1.17,1.17 0 0 1 0.54,0.143 V 82.612 A 1.159,1.159 0 0 1 0,82.756 Z"
     style="fill:#33865f"
     id="path36" />
  <path
     d="m 0,89.955 v 4.781 0 a 1.17,1.17 0 0 1 0.54,0.143 V 89.812 A 1.17,1.17 0 0 1 0,89.955 Z"
     style="fill:#33865f"
     id="path37" />
  <path
     d="m 0,97.155 v 4.781 0 a 1.17,1.17 0 0 1 0.54,0.143 V 97.012 A 1.17,1.17 0 0 1 0,97.155 Z"
     style="fill:#33865f"
     id="path38" />
  <path
     d="m 0,104.355 v 4.781 0 a 1.17,1.17 0 0 1 0.54,0.143 v -5.067 A 1.17,1.17 0 0 1 0,104.355 Z"
     style="fill:#33865f"
     id="path39" />
  <path
     d="m 0,111.556 v 4.781 0 a 1.17,1.17 0 0 1 0.54,0.143 v -5.067 A 1.17,1.17 0 0 1 0,111.556 Z"
     style="fill:#33865f"
     id="path40" />
  <path
     d="m 0,118.755 v 4.781 0 a 1.17,1.17 0 0 1 0.54,0.143 v -5.066 A 1.17,1.17 0 0 1 0,118.756 Z"
     style="fill:#33865f"
     id="path41" />
  <path
     d="m 0,125.955 v 4.781 0 a 1.17,1.17 0 0 1 0.54,0.143 v -5.067 A 1.17,1.17 0 0 1 0,125.955 Z"
     style="fill:#33865f"
     id="path42" />
  <path
     d="m 0,133.155 v 4.781 0 a 1.17,1.17 0 0 1 0.54,0.143 v -5.067 A 1.17,1.17 0 0 1 0,133.155 Z"
     style="fill:#33865f"
     id="path43" />
  <path
     d="m 0,140.355 v 4.78 0 a 1.17,1.17 0 0 1 0.54,0.143 v -5.066 A 1.17,1.17 0 0 1 0,140.355 Z"
     style="fill:#33865f"
     id="path44" />
  <path
     d="m 0,10.755 v 4.782 0 a 1.159,1.159 0 0 1 0.54,0.144 V 10.612 A 1.158,1.158 0 0 1 0,10.755 Z"
     style="fill:#33865f"
     id="path45" />
  <path
     d="m 0.333,149.906 0.416,-0.417 a 0.708,0.708 0 0 1 -0.207,-0.5 v -1.576 a 1.177,1.177 0 0 1 -0.541,0.142 v 1.545 a 1.134,1.134 0 0 0 0.332,0.8"
     style="fill:#33865f"
     id="path46" />
  <path
     d="M 6.54,16.745 A 1.977,1.977 0 0 0 4.565,14.77 H 0 v 0.766 0 A 1.21,1.21 0 0 1 1.209,16.745 1.211,1.211 0 0 1 0,17.955 v 0 0.765 H 4.565 A 1.977,1.977 0 0 0 6.54,16.745 m -1.975,1.2 a 1.2,1.2 0 1 1 1.2,-1.2 1.2,1.2 0 0 1 -1.2,1.2"
     style="fill:#9a916c"
     id="path47" />
  <path
     d="M 6.54,21.971 H 0 v 0.766 0 A 1.211,1.211 0 0 1 1.209,23.947 1.21,1.21 0 0 1 0,25.156 v 0 0.765 h 6.54 z m -1.975,3.172 a 1.2,1.2 0 1 1 1.2,-1.2 1.2,1.2 0 0 1 -1.2,1.2"
     style="fill:#9a916c"
     id="path48" />
  <path
     d="M 6.54,31.146 A 1.978,1.978 0 0 0 4.565,29.17 H 0 v 0.766 0 a 1.21,1.21 0 0 1 0,2.42 v 0 0.765 H 4.565 A 1.978,1.978 0 0 0 6.54,31.146 m -1.975,1.2 a 1.2,1.2 0 1 1 1.2,-1.2 1.2,1.2 0 0 1 -1.2,1.2"
     style="fill:#9a916c"
     id="path49" />
  <path
     d="M 6.54,38.345 A 1.978,1.978 0 0 0 4.565,36.369 H 0 v 0.766 0 A 1.211,1.211 0 0 1 1.209,38.345 1.21,1.21 0 0 1 0,39.554 v 0 0.765 H 4.565 A 1.976,1.976 0 0 0 6.54,38.345 m -1.975,1.2 a 1.2,1.2 0 1 1 1.2,-1.2 1.2,1.2 0 0 1 -1.2,1.2"
     style="fill:#9a916c"
     id="path50" />
  <path
     d="M 6.54,45.545 A 1.978,1.978 0 0 0 4.565,43.569 H 0 v 0.766 0 A 1.211,1.211 0 0 1 1.209,45.545 1.21,1.21 0 0 1 0,46.754 v 0 0.765 H 4.565 A 1.976,1.976 0 0 0 6.54,45.545 m -1.975,1.2 a 1.2,1.2 0 1 1 1.2,-1.2 1.2,1.2 0 0 1 -1.2,1.2"
     style="fill:#9a916c"
     id="path51" />
  <path
     d="M 6.54,52.745 A 1.978,1.978 0 0 0 4.565,50.769 H 0 v 0.766 0 A 1.211,1.211 0 0 1 1.209,52.745 1.21,1.21 0 0 1 0,53.954 v 0 0.765 H 4.565 A 1.976,1.976 0 0 0 6.54,52.745 m -1.975,1.2 a 1.2,1.2 0 1 1 1.2,-1.2 1.2,1.2 0 0 1 -1.2,1.2"
     style="fill:#9a916c"
     id="path52" />
  <path
     d="M 6.54,57.97 H 0 v 0.766 0 A 1.211,1.211 0 0 1 1.209,59.946 1.21,1.21 0 0 1 0,61.155 v 0 0.765 h 6.54 z m -1.975,3.172 a 1.2,1.2 0 1 1 1.2,-1.2 1.2,1.2 0 0 1 -1.2,1.2"
     style="fill:#9a916c"
     id="path53" />
  <path
     d="M 6.54,67.145 A 1.977,1.977 0 0 0 4.565,65.17 H 0 v 0.766 0 A 1.21,1.21 0 0 1 1.209,67.145 1.211,1.211 0 0 1 0,68.355 v 0 0.765 H 4.565 A 1.977,1.977 0 0 0 6.54,67.145 m -1.975,1.2 a 1.2,1.2 0 1 1 1.2,-1.2 1.2,1.2 0 0 1 -1.2,1.2"
     style="fill:#9a916c"
     id="path54" />
  <path
     d="M 6.54,74.345 A 1.977,1.977 0 0 0 4.565,72.37 H 0 v 0.766 0 A 1.21,1.21 0 0 1 1.209,74.345 1.211,1.211 0 0 1 0,75.555 v 0 0.765 H 4.565 A 1.977,1.977 0 0 0 6.54,74.345 m -1.975,1.2 a 1.2,1.2 0 1 1 1.2,-1.2 1.2,1.2 0 0 1 -1.2,1.2"
     style="fill:#9a916c"
     id="path55" />
  <path
     d="M 6.54,81.545 A 1.977,1.977 0 0 0 4.565,79.57 H 0 v 0.766 0 A 1.21,1.21 0 0 1 1.209,81.545 1.211,1.211 0 0 1 0,82.755 v 0 0.765 H 4.565 A 1.977,1.977 0 0 0 6.54,81.545 m -1.975,1.2 a 1.2,1.2 0 1 1 1.2,-1.2 1.2,1.2 0 0 1 -1.2,1.2"
     style="fill:#9a916c"
     id="path56" />
  <path
     d="M 6.54,88.745 A 1.977,1.977 0 0 0 4.565,86.77 H 0 v 0.766 0 A 1.21,1.21 0 0 1 1.209,88.745 1.211,1.211 0 0 1 0,89.955 v 0 0.765 H 4.565 A 1.977,1.977 0 0 0 6.54,88.745 m -1.975,1.2 a 1.2,1.2 0 1 1 1.2,-1.2 1.2,1.2 0 0 1 -1.2,1.2"
     style="fill:#9a916c"
     id="path57" />
  <path
     d="M 6.54,93.97 H 0 v 0.766 0 a 1.21,1.21 0 0 1 0,2.42 v 0 0.765 h 6.54 z m -1.975,3.173 a 1.2,1.2 0 1 1 1.2,-1.2 1.2,1.2 0 0 1 -1.2,1.2"
     style="fill:#9a916c"
     id="path58" />
  <path
     d="M 6.54,103.146 A 1.978,1.978 0 0 0 4.565,101.17 H 0 v 0.766 0 a 1.211,1.211 0 0 1 1.209,1.21 A 1.21,1.21 0 0 1 0,104.355 v 0 0.766 h 4.565 a 1.978,1.978 0 0 0 1.975,-1.975 m -1.975,1.2 a 1.2,1.2 0 1 1 1.2,-1.2 1.2,1.2 0 0 1 -1.2,1.2"
     style="fill:#9a916c"
     id="path59" />
  <path
     d="M 6.54,110.346 A 1.978,1.978 0 0 0 4.565,108.37 H 0 v 0.766 0 a 1.211,1.211 0 0 1 1.209,1.21 A 1.21,1.21 0 0 1 0,111.555 v 0 0.765 h 4.565 a 1.976,1.976 0 0 0 1.975,-1.974 m -1.975,1.2 a 1.2,1.2 0 1 1 1.2,-1.2 1.2,1.2 0 0 1 -1.2,1.2"
     style="fill:#9a916c"
     id="path60" />
  <path
     d="M 6.54,117.546 A 1.978,1.978 0 0 0 4.565,115.57 H 0 v 0.766 0 a 1.211,1.211 0 0 1 1.209,1.21 A 1.21,1.21 0 0 1 0,118.755 v 0 0.765 h 4.565 a 1.976,1.976 0 0 0 1.975,-1.974 m -1.975,1.2 a 1.2,1.2 0 1 1 1.2,-1.2 1.2,1.2 0 0 1 -1.2,1.2"
     style="fill:#9a916c"
     id="path61" />
  <path
     d="M 6.54,124.746 A 1.978,1.978 0 0 0 4.565,122.77 H 0 v 0.766 0 a 1.211,1.211 0 0 1 1.209,1.21 A 1.21,1.21 0 0 1 0,125.955 v 0 0.765 h 4.565 a 1.976,1.976 0 0 0 1.975,-1.974 m -1.975,1.2 a 1.2,1.2 0 1 1 1.2,-1.2 1.2,1.2 0 0 1 -1.2,1.2"
     style="fill:#9a916c"
     id="path62" />
  <path
     d="M 6.54,129.971 H 0 v 0.766 0 a 1.21,1.21 0 0 1 1.209,1.209 1.211,1.211 0 0 1 -1.209,1.21 v 0 0.765 h 6.54 z m -1.975,3.172 a 1.2,1.2 0 1 1 1.2,-1.2 1.2,1.2 0 0 1 -1.2,1.2"
     style="fill:#9a916c"
     id="path63" />
  <path
     d="M 6.54,139.146 A 1.977,1.977 0 0 0 4.565,137.171 H 0 v 0.766 0 a 1.21,1.21 0 0 1 1.209,1.209 1.211,1.211 0 0 1 -1.209,1.21 v 0 0.765 h 4.565 a 1.977,1.977 0 0 0 1.975,-1.975 m -1.975,1.2 a 1.2,1.2 0 1 1 1.2,-1.2 1.2,1.2 0 0 1 -1.2,1.2"
     style="fill:#9a916c"
     id="path64" />
  <path
     d="M 6.54,146.345 A 1.977,1.977 0 0 0 4.565,144.37 H 0 v 0.766 0 a 1.21,1.21 0 0 1 1.209,1.209 1.211,1.211 0 0 1 -1.209,1.21 v 0 0.765 h 4.565 a 1.977,1.977 0 0 0 1.975,-1.975 m -1.975,1.2 a 1.2,1.2 0 1 1 1.2,-1.2 1.2,1.2 0 0 1 -1.2,1.2"
     style="fill:#9a916c"
     id="path65" />
  <path
     d="m 54.965,18.721 h 4.564 v -0.766 a 1.21,1.21 0 1 1 0,-2.419 V 14.77 h -4.564 a 1.976,1.976 0 0 0 0,3.951 m -1.2,-1.976 a 1.2,1.2 0 1 1 1.2,1.2 1.2,1.2 0 0 1 -1.2,-1.2"
     style="fill:#9a916c"
     id="path66" />
  <path
     d="m 52.99,25.921 h 6.539 v -0.766 a 1.21,1.21 0 1 1 0,-2.419 V 21.97 H 52.99 Z m 0.778,-1.975 a 1.2,1.2 0 1 1 1.2,1.2 1.2,1.2 0 0 1 -1.2,-1.2"
     style="fill:#9a916c"
     id="path67" />
  <path
     d="m 54.965,33.12 h 4.564 v -0.765 a 1.21,1.21 0 1 1 0,-2.419 v -0.767 h -4.564 a 1.976,1.976 0 0 0 0,3.951 m -1.2,-1.975 a 1.2,1.2 0 1 1 1.2,1.2 1.2,1.2 0 0 1 -1.2,-1.2"
     style="fill:#9a916c"
     id="path68" />
  <path
     d="m 54.965,40.32 h 4.564 v -0.766 a 1.21,1.21 0 1 1 0,-2.419 v -0.766 h -4.564 a 1.976,1.976 0 0 0 0,3.951 m -1.2,-1.975 a 1.2,1.2 0 1 1 1.2,1.2 1.2,1.2 0 0 1 -1.2,-1.2"
     style="fill:#9a916c"
     id="path69" />
  <path
     d="m 54.965,47.52 h 4.564 v -0.766 a 1.21,1.21 0 1 1 0,-2.419 v -0.766 h -4.564 a 1.976,1.976 0 0 0 0,3.951 m -1.2,-1.975 a 1.2,1.2 0 1 1 1.2,1.2 1.2,1.2 0 0 1 -1.2,-1.2"
     style="fill:#9a916c"
     id="path70" />
  <path
     d="m 54.965,54.72 h 4.564 v -0.766 a 1.21,1.21 0 1 1 0,-2.419 v -0.766 h -4.564 a 1.976,1.976 0 0 0 0,3.951 m -1.2,-1.975 a 1.2,1.2 0 1 1 1.2,1.2 1.2,1.2 0 0 1 -1.2,-1.2"
     style="fill:#9a916c"
     id="path71" />
  <path
     d="m 52.99,61.92 h 6.539 v -0.766 a 1.21,1.21 0 1 1 0,-2.419 V 57.969 H 52.99 Z m 0.778,-1.975 a 1.2,1.2 0 1 1 1.2,1.2 1.2,1.2 0 0 1 -1.2,-1.2"
     style="fill:#9a916c"
     id="path72" />
  <path
     d="m 54.965,69.121 h 4.564 v -0.766 a 1.21,1.21 0 1 1 0,-2.419 V 65.17 h -4.564 a 1.976,1.976 0 0 0 0,3.951 m -1.2,-1.976 a 1.2,1.2 0 1 1 1.2,1.2 1.2,1.2 0 0 1 -1.2,-1.2"
     style="fill:#9a916c"
     id="path73" />
  <path
     d="m 54.965,76.321 h 4.564 v -0.766 a 1.21,1.21 0 1 1 0,-2.419 V 72.37 h -4.564 a 1.976,1.976 0 0 0 0,3.951 m -1.2,-1.976 a 1.2,1.2 0 1 1 1.2,1.2 1.2,1.2 0 0 1 -1.2,-1.2"
     style="fill:#9a916c"
     id="path74" />
  <path
     d="m 54.965,83.521 h 4.564 v -0.766 a 1.21,1.21 0 1 1 0,-2.419 v -0.767 h -4.564 a 1.976,1.976 0 0 0 0,3.952 m -1.2,-1.976 a 1.2,1.2 0 1 1 1.2,1.2 1.2,1.2 0 0 1 -1.2,-1.2"
     style="fill:#9a916c"
     id="path75" />
  <path
     d="m 54.965,90.721 h 4.564 v -0.767 a 1.21,1.21 0 1 1 0,-2.419 v -0.766 h -4.564 a 1.976,1.976 0 0 0 0,3.952 m -1.2,-1.976 a 1.2,1.2 0 1 1 1.2,1.2 1.2,1.2 0 0 1 -1.2,-1.2"
     style="fill:#9a916c"
     id="path76" />
  <path
     d="m 52.99,97.92 h 6.539 v -0.766 a 1.21,1.21 0 1 1 0,-2.419 V 93.969 H 52.99 Z m 0.778,-1.975 a 1.2,1.2 0 1 1 1.2,1.2 1.2,1.2 0 0 1 -1.2,-1.2"
     style="fill:#9a916c"
     id="path77" />
  <path
     d="m 54.965,105.12 h 4.564 v -0.766 a 1.21,1.21 0 1 1 0,-2.419 v -0.766 h -4.564 a 1.976,1.976 0 0 0 0,3.951 m -1.2,-1.975 a 1.2,1.2 0 1 1 1.2,1.2 1.2,1.2 0 0 1 -1.2,-1.2"
     style="fill:#9a916c"
     id="path78" />
  <path
     d="m 54.965,112.321 h 4.564 v -0.766 a 1.21,1.21 0 1 1 0,-2.419 v -0.766 h -4.564 a 1.976,1.976 0 0 0 0,3.951 m -1.2,-1.975 a 1.2,1.2 0 1 1 1.2,1.2 1.2,1.2 0 0 1 -1.2,-1.2"
     style="fill:#9a916c"
     id="path79" />
  <path
     d="m 54.965,119.521 h 4.564 v -0.766 a 1.21,1.21 0 1 1 0,-2.419 v -0.766 h -4.564 a 1.976,1.976 0 0 0 0,3.951 m -1.2,-1.975 a 1.2,1.2 0 1 1 1.2,1.2 1.2,1.2 0 0 1 -1.2,-1.2"
     style="fill:#9a916c"
     id="path80" />
  <path
     d="m 54.965,126.721 h 4.564 v -0.766 a 1.21,1.21 0 1 1 0,-2.419 v -0.766 h -4.564 a 1.976,1.976 0 0 0 0,3.951 m -1.2,-1.975 a 1.2,1.2 0 1 1 1.2,1.2 1.2,1.2 0 0 1 -1.2,-1.2"
     style="fill:#9a916c"
     id="path81" />
  <path
     d="m 52.99,133.921 h 6.539 v -0.766 a 1.21,1.21 0 1 1 0,-2.419 V 129.97 H 52.99 Z m 0.778,-1.976 a 1.2,1.2 0 1 1 1.2,1.2 1.2,1.2 0 0 1 -1.2,-1.2"
     style="fill:#9a916c"
     id="path82" />
  <path
     d="m 54.965,141.121 h 4.564 v -0.766 a 1.21,1.21 0 1 1 0,-2.419 v -0.766 h -4.564 a 1.976,1.976 0 0 0 0,3.951 m -1.2,-1.976 a 1.2,1.2 0 1 1 1.2,1.2 1.2,1.2 0 0 1 -1.2,-1.2"
     style="fill:#9a916c"
     id="path83" />
  <path
     d="m 54.965,148.321 h 4.564 v -0.766 a 1.21,1.21 0 1 1 0,-2.419 v -0.767 h -4.564 a 1.976,1.976 0 0 0 0,3.952 m -1.2,-1.976 a 1.2,1.2 0 1 1 1.2,1.2 1.2,1.2 0 0 1 -1.2,-1.2"
     style="fill:#9a916c"
     id="path84" />
  <path
     d="m 22.565,144.368 a 1.979,1.979 0 0 0 -1.976,1.975 v 3.9 h 0.766 a 1.21,1.21 0 1 1 2.42,0 h 0.765 v -3.9 a 1.979,1.979 0 0 0 -1.975,-1.975 m 1.2,1.976 a 1.2,1.2 0 1 1 -1.2,-1.2 1.2,1.2 0 0 1 1.2,1.2"
     style="fill:#9a916c"
     id="path85" />
  <path
     d="m 27.788,144.43 v 5.809 h 0.766 a 1.21,1.21 0 1 1 2.419,0 h 0.765 v -5.809 z m 3.173,1.914 a 1.2,1.2 0 1 1 -1.2,-1.2 1.2,1.2 0 0 1 1.2,1.2"
     style="fill:#9a916c"
     id="path86" />
  <path
     d="m 36.966,144.368 a 1.979,1.979 0 0 0 -1.976,1.975 v 3.9 h 0.766 a 1.21,1.21 0 1 1 2.419,0 h 0.765 v -3.9 a 1.977,1.977 0 0 0 -1.974,-1.975 m 1.2,1.976 a 1.2,1.2 0 1 1 -1.2,-1.2 1.2,1.2 0 0 1 1.2,1.2"
     style="fill:#9a916c"
     id="path87" />
  <path
     d="m 54.965,11.52 h 4.564 v -0.766 a 1.21,1.21 0 1 1 0,-2.419 V 7.569 h -4.564 a 1.976,1.976 0 0 0 0,3.951 m -1.2,-1.976 a 1.2,1.2 0 1 1 1.2,1.2 1.2,1.2 0 0 1 -1.2,-1.2"
     style="fill:#9a916c"
     id="path88" />
  <path
     d="M 6.54,9.544 A 1.977,1.977 0 0 0 4.565,7.569 H 0 v 0.766 0 A 1.21,1.21 0 0 1 1.211,9.544 1.211,1.211 0 0 1 0,10.754 v 0 0.765 H 4.565 A 1.977,1.977 0 0 0 6.54,9.544 m -1.975,1.2 a 1.2,1.2 0 1 1 1.2,-1.2 1.2,1.2 0 0 1 -1.2,1.2"
     style="fill:#9a916c"
     id="path89" />
  <path
     d="m 13.622,148.949 a 4.52,4.52 0 1 1 4.52,-4.519 4.524,4.524 0 0 1 -4.52,4.519 m 0,-7.039 a 2.52,2.52 0 1 0 2.52,2.52 2.523,2.523 0 0 0 -2.52,-2.52"
     style="fill:#fcee21"
     id="path90" />
  <path
     d="m 45.908,148.949 a 4.52,4.52 0 1 1 4.52,-4.519 4.525,4.525 0 0 1 -4.52,4.519 m 0,-7.039 a 2.52,2.52 0 1 0 2.52,2.52 2.523,2.523 0 0 0 -2.52,-2.52"
     style="fill:#fcee21"
     id="path91" />
  <path
     d="m 13.622,16 a 4.52,4.52 0 1 1 4.52,-4.519 4.524,4.524 0 0 1 -4.52,4.519 m 0,-7.039 a 2.519,2.519 0 1 0 2.52,2.52 2.522,2.522 0 0 0 -2.52,-2.52"
     style="fill:#fcee21"
     id="path92" />
  <path
     d="m 45.908,16 a 4.52,4.52 0 1 1 4.52,-4.519 4.525,4.525 0 0 1 -4.52,4.519 m 0,-7.039 a 2.519,2.519 0 1 0 2.52,2.52 2.522,2.522 0 0 0 -2.52,-2.52"
     style="fill:#fcee21"
     id="path93" />
  <rect
     x="19.778"
     y="67.967003"
     width="19.975"
     height="19.974001"
     style="fill:#30312e"
     id="rect93" />
  <path
     d="M 39.12,17.009 H 20.411 A 0.567,0.567 0 0 1 19.844,16.442 V 2.506 A 0.566,0.566 0 0 1 20.411,1.94 H 39.12 a 0.566,0.566 0 0 1 0.566,0.566 v 13.936 a 0.567,0.567 0 0 1 -0.566,0.567"
     style="fill:#363a44"
     id="path94" />
  <path
     d="M 21.264,0 A 0.565,0.565 0 0 0 20.722,0.4 L 20.41,1.43 19.843,2 v 14.441 a 0.567,0.567 0 0 0 0.567,0.568 h 3.46 a 0.284,0.284 0 0 0 0.284,-0.283 V 15.9 a 0.569,0.569 0 0 0 -0.295,-0.5 l -1.926,-1.052 a 0.567,0.567 0 0 1 -0.295,-0.5 V 13.021 H 22.9 V 12.07 h 1.94 v 0.953 h 1.144 v 1.971 a 0.567,0.567 0 0 0 0.567,0.568 h 0.919 v -1.023 h 4.59 v 1.023 h 0.92 a 0.567,0.567 0 0 0 0.566,-0.568 V 13.023 H 34.69 V 12.07 h 1.944 v 0.953 h 1.258 v 0.827 a 0.567,0.567 0 0 1 -0.3,0.5 l -1.921,1.05 a 0.568,0.568 0 0 0 -0.3,0.5 v 0.829 a 0.284,0.284 0 0 0 0.284,0.283 h 3.459 a 0.568,0.568 0 0 0 0.568,-0.568 V 2 L 39.114,1.433 38.809,0.4 A 0.567,0.567 0 0 0 38.266,0 Z"
     style="fill:#dbddda"
     id="path95" />
  <path
     d="M 20.465,2.883 A 11.555,11.555 0 0 1 19.736,1.833 3.83,3.83 0 0 1 19.436,1.223 4.275,4.275 0 0 1 19.252,0.579 0.34,0.34 0 0 1 19.908,0.4 v 0 a 3.073,3.073 0 0 0 0.523,0.962 10.972,10.972 0 0 0 0.79,0.865 v 0 a 0.50030616,0.50030616 0 1 1 -0.715,0.7 0.515,0.515 0 0 1 -0.043,-0.05"
     style="fill:#dbddda"
     id="path96" />
  <path
     d="M 38.308,2.229 A 10.963,10.963 0 0 0 39.098,1.365 3.1,3.1 0 0 0 39.62,0.4 v 0 a 0.34,0.34 0 0 1 0.655,0.179 4.042,4.042 0 0 1 -0.184,0.643 3.826,3.826 0 0 1 -0.3,0.61 11.555,11.555 0 0 1 -0.729,1.05 0.5,0.5 0 1 1 -0.8,-0.6 0.472,0.472 0 0 1 0.041,-0.048 z"
     style="fill:#dbddda"
     id="path97" />
  <path
     d="m 25.253,99.464045 h -7.37 a 0.567,0.567 0 0 1 -0.567,-0.567 v -4.535 a 0.567,0.567 0 0 1 0.567,-0.567 h 7.37 a 0.567,0.567 0 0 1 0.567,0.567 v 4.535 a 0.567,0.567 0 0 1 -0.567,0.567"
     style="fill:#dbddda"
     id="path98" />
  <rect
     x="16.06918"
     y="55.693001"
     width="5.6690001"
     height="8.5039997"
     style="fill:#2a2d2e"
     id="rect98" />
  <rect
     x="34.240002"
     y="31.853001"
     width="7.0869999"
     height="7.0869999"
     style="fill:#2a2d2e"
     id="rect99" />
  <rect
     x="44.466999"
     y="19.591"
     width="4.2519999"
     height="7.086"
     style="fill:#2a2d2e"
     id="rect100" />
  <path
     d="m 16.093,32.836 h 7.37 a 0.567,0.567 0 0 1 0.567,0.566 v 10.2 a 0.567,0.567 0 0 1 -0.567,0.568 h -7.37 A 0.567,0.567 0 0 1 15.526,43.602 V 33.4 a 0.567,0.567 0 0 1 0.567,-0.566"
     style="fill:#cccccc"
     id="path100" />
  <path
     d="m 19.778,33.544 v 0 a 3.544,3.544 0 0 1 3.544,3.544 v 2.835 a 3.544,3.544 0 0 1 -7.087,0 v -2.835 a 3.544,3.544 0 0 1 3.543,-3.544"
     style="fill:#ffffff"
     id="path101" />
  <path
     d="m 15.526,33.4 v 1.064 a 0.567,0.567 0 0 0 0.968,0.4 L 17.558,33.8 a 0.566,0.566 0 0 0 -0.4,-0.967 h -1.065 a 0.567,0.567 0 0 0 -0.567,0.566"
     style="fill:#ffffff"
     id="path102" />
  <path
     d="M 23.463,32.836 H 22.4 A 0.567,0.567 0 0 0 22,33.804 l 1.065,1.064 a 0.566,0.566 0 0 0 0.967,-0.4 V 33.4 a 0.567,0.567 0 0 0 -0.566,-0.566"
     style="fill:#ffffff"
     id="path103" />
  <path
     d="m 24.03,43.577 v -1.064 a 0.567,0.567 0 0 0 -0.968,-0.4 L 22,43.177 a 0.566,0.566 0 0 0 0.4,0.967 h 1.066 a 0.567,0.567 0 0 0 0.566,-0.567"
     style="fill:#ffffff"
     id="path104" />
  <path
     d="m 16.093,44.145 h 1.064 a 0.567,0.567 0 0 0 0.4,-0.968 l -1.065,-1.064 a 0.566,0.566 0 0 0 -0.967,0.4 v 1.065 a 0.567,0.567 0 0 0 0.567,0.567"
     style="fill:#ffffff"
     id="path105" />
  <path
     d="M 43.757,38.373 V 32.42 a 0.567,0.567 0 0 1 0.567,-0.567 h 4.536 a 0.567,0.567 0 0 1 0.567,0.567 v 5.953 A 0.567,0.567 0 0 1 48.86,38.94 h -4.536 a 0.567,0.567 0 0 1 -0.567,-0.567"
     style="fill:#2a2d2e"
     id="path106" />
  <path
     d="m 33.878365,61.00085 v -4.799065 a 0.68444503,0.45709215 0 0 1 0.684445,-0.457092 h 5.47556 a 0.68444503,0.45709215 0 0 1 0.684445,0.457092 V 61.00085 A 0.68444503,0.45709215 0 0 1 40.03837,61.457942 H 34.56281 A 0.68444503,0.45709215 0 0 1 33.878365,61.00085"
     style="fill:#2a2d2e;stroke-width:0.999996"
     id="path106-9" />
  <rect
     x="34.948002"
     y="40.195"
     width="5.6700001"
     height="4.2519999"
     style="fill:#dbddda"
     id="rect106" />
  <rect
     x="-48.561249"
     y="-55.487"
     width="1.002502"
     height="2.3740005"
     style="fill:#dbddda;stroke-width:0.999996"
     id="rect107-7"
     transform="scale(-1)" />
  <rect
     x="-49.582184"
     y="-59.278"
     width="1.002502"
     height="2.3740005"
     style="fill:#dbddda;stroke-width:0.999996"
     id="rect107-7-3"
     transform="scale(-1)" />
  <rect
     x="-47.357658"
     y="-59.278"
     width="1.002502"
     height="2.3740005"
     style="fill:#dbddda;stroke-width:0.999996"
     id="rect107-7-3-7"
     transform="scale(-1)" />
  <rect
     x="34.948002"
     y="26.268999"
     width="5.6700001"
     height="4.2519999"
     style="fill:#dbddda"
     id="rect109" />
  <rect
     x="35.657001"
     y="26.268999"
     width="4.2519999"
     height="4.2519999"
     style="fill:#958863"
     id="rect110" />
  <rect
     x="35.657001"
     y="40.195"
     width="4.2519999"
     height="4.2519999"
     style="fill:#958863"
     id="rect111" />
  <path
     d="m 46.882,131.945 a 1.2,1.2 0 1 1 -1.2,1.2 1.2,1.2 0 0 1 1.2,-1.2"
     style="fill:#9a916c"
     id="path111" />
  <path
     d="m 13.434,25.013 a 1.2,1.2 0 1 1 -1.2,1.2 1.2,1.2 0 0 1 1.2,-1.2"
     style="fill:#9a916c"
     id="path112" />
  <rect
     x="20.413"
     y="25.597"
     width="2.835"
     height="1.418"
     style="fill:#dbddda"
     id="rect112" />
  <rect
     x="20.767"
     y="25.597"
     width="2.1259999"
     height="1.418"
     style="fill:#2a2d2e"
     id="rect113" />
  <rect
     x="45.933998"
     y="55.487"
     width="4.2519999"
     height="1.4170001"
     style="fill:#2a2d2e"
     id="rect117" />
  <rect
     x="42.442001"
     y="58.528"
     width="1.4170001"
     height="2.8340001"
     style="fill:#dbddda"
     id="rect119" />
  <rect
     x="42.442001"
     y="58.881001"
     width="1.4170001"
     height="2.1270001"
     style="fill:#2a2d2e"
     id="rect120" />
  <rect
     x="42.442001"
     y="63.29274"
     width="1.4170001"
     height="2.8340001"
     style="fill:#dbddda"
     id="rect121" />
  <rect
     x="42.442001"
     y="63.645741"
     width="1.4170001"
     height="2.1270001"
     style="fill:#9a916c"
     id="rect122" />
  <rect
     x="46.147907"
     y="63.29274"
     width="1.4170001"
     height="2.8340001"
     style="fill:#dbddda"
     id="rect121-9" />
  <rect
     x="46.147907"
     y="63.645741"
     width="1.4170001"
     height="2.1270001"
     style="fill:#9a916c"
     id="rect122-7" />
  <rect
     x="48.539909"
     y="63.132496"
     width="1.063"
     height="2.1270001"
     style="fill:#dbddda"
     id="rect123" />
  <rect
     x="48.539909"
     y="63.487495"
     width="1.063"
     height="1.418"
     style="fill:#2a2d2e"
     id="rect124" />
  <rect
     x="49.080933"
     y="49.176003"
     width="1.063"
     height="2.1270001"
     style="fill:#dbddda"
     id="rect123-7" />
  <rect
     x="49.080933"
     y="49.530998"
     width="1.063"
     height="1.418"
     style="fill:#2a2d2e"
     id="rect124-6" />
  <rect
     x="47.212681"
     y="49.176003"
     width="1.063"
     height="2.1270001"
     style="fill:#dbddda"
     id="rect123-7-2" />
  <rect
     x="47.212681"
     y="49.530998"
     width="1.063"
     height="1.418"
     style="fill:#2a2d2e"
     id="rect124-6-7" />
  <rect
     x="45.357643"
     y="49.175507"
     width="1.063"
     height="2.1270001"
     style="fill:#dbddda"
     id="rect123-7-2-0" />
  <rect
     x="45.357643"
     y="49.530502"
     width="1.063"
     height="1.418"
     style="fill:#2a2d2e"
     id="rect124-6-7-3" />
  <rect
     x="26.593987"
     y="60.021614"
     width="1.062"
     height="2.1270001"
     style="fill:#dbddda"
     id="rect125" />
  <rect
     x="26.593987"
     y="60.376614"
     width="1.062"
     height="1.418"
     style="fill:#2a2d2e"
     id="rect126" />
  <rect
     x="28.26"
     y="60.021614"
     width="1.062"
     height="2.1270001"
     style="fill:#dbddda"
     id="rect125-6" />
  <rect
     x="28.26"
     y="60.376614"
     width="1.062"
     height="1.418"
     style="fill:#2a2d2e"
     id="rect126-5" />
  <rect
     x="50.577915"
     y="63.133495"
     width="1.062"
     height="2.1259999"
     style="fill:#dbddda"
     id="rect129" />
  <rect
     x="50.577915"
     y="63.488499"
     width="1.062"
     height="1.4170001"
     style="fill:#9a916c"
     id="rect130" />
  <rect
     x="16.04718"
     y="52.163002"
     width="1.062"
     height="2.1259999"
     style="fill:#dbddda"
     id="rect133" />
  <rect
     x="16.04718"
     y="52.517002"
     width="1.062"
     height="1.4170001"
     style="fill:#9a916c"
     id="rect134" />
  <rect
     x="26.866499"
     y="90.522499"
     width="1.063"
     height="2.1259999"
     style="fill:#dbddda"
     id="rect135" />
  <rect
     x="26.866499"
     y="90.877502"
     width="1.063"
     height="1.4170001"
     style="fill:#9a916c"
     id="rect136" />
  <rect
     x="24.252502"
     y="89.350227"
     width="1.062"
     height="2.1259999"
     style="fill:#dbddda"
     id="rect137" />
  <rect
     x="24.252502"
     y="89.705231"
     width="1.062"
     height="1.4170001"
     style="fill:#9a916c"
     id="rect138" />
  <rect
     x="26.414499"
     y="93.79454"
     width="1.062"
     height="2.1259999"
     style="fill:#dbddda"
     id="rect139" />
  <rect
     x="26.414499"
     y="94.148544"
     width="1.062"
     height="1.418"
     style="fill:#9a916c"
     id="rect140" />
  <rect
     x="26.414499"
     y="96.629547"
     width="1.062"
     height="2.1259999"
     style="fill:#dbddda"
     id="rect139-3" />
  <rect
     x="26.414499"
     y="96.983521"
     width="1.062"
     height="1.418"
     style="fill:#9a916c"
     id="rect140-9" />
  <rect
     x="15.659502"
     y="96.629547"
     width="1.062"
     height="2.1259999"
     style="fill:#dbddda"
     id="rect141" />
  <rect
     x="15.659502"
     y="96.98455"
     width="1.062"
     height="1.4170001"
     style="fill:#9a916c"
     id="rect142" />
  <rect
     x="65.55378"
     y="-38.961533"
     width="1.4170001"
     height="2.8340001"
     style="fill:#dbddda"
     id="rect143"
     transform="rotate(90)" />
  <rect
     x="65.553276"
     y="-38.608032"
     width="1.4170001"
     height="2.1270001"
     style="fill:#9a916c"
     id="rect144"
     transform="rotate(90)" />
  <rect
     x="63.569431"
     y="-38.961533"
     width="1.4170001"
     height="2.8340001"
     style="fill:#dbddda"
     id="rect145"
     transform="rotate(90)" />
  <rect
     x="63.568932"
     y="-38.608032"
     width="1.4170001"
     height="2.1270001"
     style="fill:#9a916c"
     id="rect146"
     transform="rotate(90)" />
  <rect
     x="20.413"
     y="23.134001"
     width="2.835"
     height="1.4170001"
     style="fill:#dbddda"
     id="rect147" />
  <rect
     x="20.767"
     y="23.134001"
     width="2.1259999"
     height="1.4170001"
     style="fill:#2a2d2e"
     id="rect148" />
  <rect
     x="36.366001"
     y="23.134001"
     width="2.835"
     height="1.4170001"
     style="fill:#dbddda"
     id="rect149" />
  <rect
     x="36.720001"
     y="23.134001"
     width="2.1259999"
     height="1.4170001"
     style="fill:#2a2d2e"
     id="rect150" />
  <rect
     x="13.292179"
     y="55.693001"
     width="1.4170001"
     height="2.835"
     style="fill:#dbddda"
     id="rect151" />
  <rect
     x="13.292179"
     y="56.047001"
     width="1.4170001"
     height="2.1259999"
     style="fill:#2a2d2e"
     id="rect152" />
  <rect
     x="13.292179"
     y="61.363003"
     width="1.4170001"
     height="2.8340001"
     style="fill:#dbddda"
     id="rect153" />
  <rect
     x="13.292179"
     y="61.716003"
     width="1.4170001"
     height="2.1270001"
     style="fill:#2a2d2e"
     id="rect154" />
  <rect
     x="45.323475"
     y="-50.498432"
     width="1.4170001"
     height="2.835"
     style="fill:#dbddda"
     id="rect155"
     transform="rotate(90)" />
  <rect
     x="45.322975"
     y="-50.143932"
     width="1.4170001"
     height="2.1259999"
     style="fill:#2a2d2e"
     id="rect156"
     transform="rotate(90)" />
  <rect
     x="41.379002"
     y="69.121002"
     width="2.1259999"
     height="1.062"
     style="fill:#dbddda"
     id="rect157" />
  <rect
     x="41.733002"
     y="69.121002"
     width="1.418"
     height="1.062"
     style="fill:#9a916c"
     id="rect158" />
  <rect
     x="15.825"
     y="70.213997"
     width="2.1259999"
     height="1.062"
     style="fill:#dbddda"
     id="rect159" />
  <rect
     x="16.179001"
     y="70.213997"
     width="1.4170001"
     height="1.062"
     style="fill:#9a916c"
     id="rect160" />
  <rect
     x="15.825"
     y="80.718002"
     width="2.1259999"
     height="1.063"
     style="fill:#dbddda"
     id="rect161" />
  <rect
     x="16.179001"
     y="80.718002"
     width="1.4170001"
     height="1.063"
     style="fill:#9a916c"
     id="rect162" />
  <rect
     x="14.762"
     y="75.413002"
     width="2.1259999"
     height="1.063"
     style="fill:#dbddda"
     id="rect161-9" />
  <rect
     x="15.116"
     y="75.413002"
     width="1.4170001"
     height="1.063"
     style="fill:#9a916c"
     id="rect162-9" />
  <rect
     x="41.734001"
     y="76.050194"
     width="2.1259999"
     height="1.063"
     style="fill:#dbddda"
     id="rect161-0" />
  <rect
     x="42.088001"
     y="76.050194"
     width="1.4170001"
     height="1.063"
     style="fill:#9a916c"
     id="rect162-5" />
  <rect
     x="41.734501"
     y="78.616501"
     width="2.1259999"
     height="1.063"
     style="fill:#dbddda"
     id="rect161-0-2" />
  <rect
     x="42.088501"
     y="78.616501"
     width="1.4170001"
     height="1.063"
     style="fill:#9a916c"
     id="rect162-5-2" />
  <rect
     x="-37.138306"
     y="90.193802"
     width="1.063"
     height="2.1259999"
     transform="rotate(-45)"
     style="fill:#dbddda"
     id="rect163" />
  <rect
     x="-37.19846"
     y="90.524689"
     width="1.063"
     height="1.4170001"
     transform="rotate(-45.038)"
     style="fill:#9a916c"
     id="rect164" />
  <rect
     x="-26.79563"
     y="65.425819"
     width="1.063"
     height="2.1259999"
     transform="rotate(-45)"
     style="fill:#dbddda"
     id="rect163-9" />
  <rect
     x="-26.839357"
     y="65.763573"
     width="1.063"
     height="1.4170001"
     transform="rotate(-45.038)"
     style="fill:#9a916c"
     id="rect164-8" />
  <rect
     x="45.408001"
     y="78.548698"
     width="2.3615"
     height="1.3083023"
     style="fill:#dbddda;stroke-width:1"
     id="rect165" />
  <rect
     x="45.703709"
     y="78.548698"
     width="1.7709166"
     height="1.3083023"
     style="fill:#2a2d2e;stroke-width:1"
     id="rect166" />
  <rect
     x="45.408001"
     y="78.548698"
     width="2.3615"
     height="1.3083023"
     style="fill:#dbddda;stroke-width:1"
     id="rect167" />
  <rect
     x="45.703709"
     y="78.548698"
     width="1.7709166"
     height="1.3083023"
     style="fill:#2a2d2e;stroke-width:1"
     id="rect168" />
  <rect
     x="45.408001"
     y="76.050194"
     width="2.3615"
     height="1.3073797"
     style="fill:#dbddda;stroke-width:1"
     id="rect169" />
  <rect
     x="45.703709"
     y="76.050194"
     width="1.7709166"
     height="1.3073797"
     style="fill:#2a2d2e;stroke-width:1"
     id="rect170" />
  <rect
     x="14.762"
     y="67.502998"
     width="2.835"
     height="1.418"
     style="fill:#dbddda"
     id="rect171" />
  <rect
     x="15.116"
     y="67.502998"
     width="2.1259999"
     height="1.418"
     style="fill:#9a916c"
     id="rect172" />
  <rect
     x="90.763313"
     y="37.899364"
     width="2.185667"
     height="1.0928335"
     style="fill:#dbddda;stroke-width:1.00054"
     id="rect173"
     transform="matrix(0.69044906,0.72338102,-0.69044906,0.72338102,0,0)" />
  <rect
     x="91.035789"
     y="37.899914"
     width="1.6396358"
     height="1.0928335"
     style="fill:#2a2d2e;stroke-width:1.00054"
     id="rect174"
     transform="matrix(0.69044906,0.72338102,-0.69044906,0.72338102,0,0)" />
  <rect
     x="90.763313"
     y="37.899364"
     width="2.185667"
     height="1.0928335"
     style="fill:#dbddda;stroke-width:1.00054"
     id="rect175"
     transform="matrix(0.69044906,0.72338102,-0.69044906,0.72338102,0,0)" />
  <rect
     x="91.035789"
     y="37.899914"
     width="1.6396358"
     height="1.0928335"
     style="fill:#2a2d2e;stroke-width:1.00054"
     id="rect176"
     transform="matrix(0.69044906,0.72338102,-0.69044906,0.72338102,0,0)" />
  <rect
     x="90.763313"
     y="39.538616"
     width="2.185667"
     height="1.0928335"
     style="fill:#dbddda;stroke-width:1.00054"
     id="rect173-0"
     transform="matrix(0.69044906,0.72338102,-0.69044906,0.72338102,0,0)" />
  <rect
     x="91.035789"
     y="39.539162"
     width="1.6396358"
     height="1.0928335"
     style="fill:#2a2d2e;stroke-width:1.00054"
     id="rect174-2"
     transform="matrix(0.69044906,0.72338102,-0.69044906,0.72338102,0,0)" />
  <rect
     x="90.763313"
     y="39.538616"
     width="2.185667"
     height="1.0928335"
     style="fill:#dbddda;stroke-width:1.00054"
     id="rect175-4"
     transform="matrix(0.69044906,0.72338102,-0.69044906,0.72338102,0,0)" />
  <rect
     x="91.035789"
     y="39.539162"
     width="1.6396358"
     height="1.0928335"
     style="fill:#2a2d2e;stroke-width:1.00054"
     id="rect176-8"
     transform="matrix(0.69044906,0.72338102,-0.69044906,0.72338102,0,0)" />
  <path
     d="M 38.427,121.829 38.22,121.52 a 4.054,4.054 0 0 0 -2.374,-4.026 c 0.362,-0.1 0.775,-0.207 0.878,-0.671 a 0.987,0.987 0 0 0 0.877,-0.774 c 0.155,-0.1 0.775,-0.465 0.671,-0.98 a 0.834,0.834 0 0 0 0.413,-0.929 c 0.361,-0.361 0.464,-0.671 0.31,-0.981 a 0.747,0.747 0 0 0 0.051,-1.084 c 0.31,-0.567 0.052,-1.187 -0.826,-1.084 a 1.371,1.371 0 0 0 -1.238,-0.413 0.835,0.835 0 0 0 -0.826,-0.257 1.015,1.015 0 0 0 -1.135,-0.1 c -0.465,-0.361 -0.774,-0.052 -1.136,0.052 -0.567,-0.206 -0.722,0.052 -0.98,0.155 -0.619,-0.155 -0.825,0.154 -1.135,0.465 h -0.361 a 4.308,4.308 0 0 0 -1.6,2.219 3.64,3.64 0 0 0 -1.6,-2.219 h -0.362 c -0.309,-0.311 -0.464,-0.568 -1.135,-0.465 -0.257,-0.1 -0.413,-0.361 -0.98,-0.155 a 3.776,3.776 0 0 0 -0.723,-0.206 0.983,0.983 0 0 0 -0.465,0.154 1.013,1.013 0 0 0 -1.134,0.1 c -0.517,-0.052 -0.723,0.051 -0.826,0.257 -0.1,0 -0.877,-0.1 -1.239,0.413 -0.878,-0.1 -1.135,0.516 -0.826,1.084 a 0.787,0.787 0 0 0 0.052,1.084 c -0.154,0.31 -0.052,0.62 0.309,0.981 a 0.868,0.868 0 0 0 0.413,0.929 c -0.051,0.567 0.517,0.877 0.671,0.98 0.052,0.31 0.207,0.619 0.878,0.774 0.1,0.464 0.516,0.568 0.877,0.671 a 4.1,4.1 0 0 0 -2.374,4.026 l -0.207,0.309 a 3.966,3.966 0 0 0 -0.721,5.987 12.459,12.459 0 0 0 0.567,1.806 4.542,4.542 0 0 0 2.787,3.509 10.624,10.624 0 0 0 2.632,1.5 4.448,4.448 0 0 0 3.251,1.445 h 0.052 a 4.454,4.454 0 0 0 3.252,-1.445 8.565,8.565 0 0 0 2.631,-1.5 4.355,4.355 0 0 0 2.787,-3.509 12.415,12.415 0 0 0 0.568,-1.806 3.8,3.8 0 0 0 -0.517,-5.987 m -1.084,-0.413 c -0.051,0.929 -5.006,-3.3 -4.18,-3.458 2.322,-0.361 4.232,0.981 4.18,3.458 m -2.218,4.7 a 2.93,2.93 0 0 1 -3.975,-1.136 2.888,2.888 0 0 1 0.517,-4.076 2.926,2.926 0 0 1 3.973,1.134 2.876,2.876 0 0 1 -0.515,4.078 m -3.407,-14.605 c 0.052,0.206 0.1,0.361 0.155,0.361 a 6.539,6.539 0 0 1 0.826,-0.878 c 0,0.156 -0.1,0.362 0.1,0.465 a 3.3,3.3 0 0 1 0.775,-0.671 c -0.155,0.258 -0.052,0.362 0.051,0.465 a 2.908,2.908 0 0 1 0.981,-0.62 c -0.155,0.155 -0.31,0.31 -0.1,0.517 a 3.44,3.44 0 0 1 1.188,-0.465 c -0.155,0.155 -0.465,0.309 -0.258,0.465 a 7.289,7.289 0 0 1 1.135,-0.259 c -0.206,0.155 -0.361,0.31 -0.206,0.465 a 2.844,2.844 0 0 1 1.342,-0.155 l -0.31,0.31 a 5.668,5.668 0 0 0 1.187,0.052 3.075,3.075 0 0 0 -0.464,0.928 c 0.051,0.052 0.309,0 0.515,0 -0.257,0.516 -0.671,0.62 -0.722,0.826 a 0.557,0.557 0 0 0 0.567,0 c -0.154,0.361 -0.516,0.568 -0.825,0.878 0.052,0.051 0.206,0.1 0.515,0.051 a 7.3,7.3 0 0 1 -0.928,0.774 2.818,2.818 0 0 0 0.515,0.1 5.588,5.588 0 0 1 -1.186,0.723 0.669,0.669 0 0 0 0.516,0.1 3.876,3.876 0 0 1 -1.239,0.516 c 0.1,0.155 0.155,0.155 0.362,0.206 -0.465,0.259 -1.188,0.155 -1.394,0.259 0.052,0.154 0.155,0.206 0.361,0.31 -0.774,0.051 -2.889,-0.052 -3.3,-1.652 a 16.227,16.227 0 0 1 4.748,-3.148 15.434,15.434 0 0 0 -5.161,2.735 c -1.806,-0.826 -0.62,-2.839 0.258,-3.664 m -1.755,5.831 v 0 c 1.239,0 2.736,0.878 2.736,1.755 0,0.774 -1.084,1.394 -2.736,1.342 -1.651,0 -2.735,-0.775 -2.735,-1.5 0,-0.619 1.342,-1.652 2.735,-1.6 m -6.245,-0.671 c 0.207,-0.052 0.259,-0.052 0.362,-0.206 a 3.931,3.931 0 0 1 -1.239,-0.516 0.673,0.673 0 0 0 0.516,-0.1 5.645,5.645 0 0 1 -1.187,-0.723 c 0.206,0 0.464,0 0.516,-0.1 a 3.373,3.373 0 0 1 -0.929,-0.775 0.7,0.7 0 0 0 0.516,-0.051 6.65,6.65 0 0 1 -0.825,-0.877 0.722,0.722 0 0 0 0.567,0 c -0.1,-0.206 -0.515,-0.362 -0.722,-0.826 0.207,0 0.464,0.051 0.516,0 a 3.094,3.094 0 0 0 -0.465,-0.929 5.383,5.383 0 0 0 1.188,-0.052 l -0.311,-0.31 a 2.315,2.315 0 0 1 1.342,0.156 c 0.155,-0.1 0,-0.258 -0.206,-0.465 a 7.419,7.419 0 0 1 1.136,0.258 c 0.154,-0.155 -0.1,-0.31 -0.259,-0.464 a 2.914,2.914 0 0 1 1.187,0.464 c 0.206,-0.206 0,-0.362 -0.1,-0.516 a 2.907,2.907 0 0 1 0.98,0.619 c 0.1,-0.1 0.207,-0.206 0.052,-0.464 a 2.035,2.035 0 0 1 0.775,0.67 c 0.206,-0.154 0.1,-0.309 0.1,-0.464 a 4.442,4.442 0 0 1 0.825,0.877 0.784,0.784 0 0 0 0.156,-0.361 c 0.825,0.826 2.012,2.839 0.309,3.612 a 16.44,16.44 0 0 0 -5.161,-2.734 17.4,17.4 0 0 1 4.748,3.147 c -0.413,1.6 -2.529,1.7 -3.3,1.652 a 0.548,0.548 0 0 0 0.362,-0.31 4.165,4.165 0 0 1 -1.446,-0.206 m 3.045,1.239 c 0.878,0.155 -4.077,4.387 -4.179,3.457 -0.052,-2.476 1.857,-3.818 4.179,-3.457 m -5.212,9.444 a 3.148,3.148 0 0 1 0.619,-5.006 c 1.342,-0.31 0.465,5.522 -0.619,5.006 m 4.593,5.007 c -0.671,0.412 -2.322,0.257 -3.509,-1.394 -0.774,-1.393 -0.671,-2.787 -0.155,-3.2 0.825,-0.516 2.116,0.155 3.1,1.29 0.877,0.98 1.29,2.787 0.567,3.3 m 3.819,2.838 c -1.5,0.051 -2.942,-1.187 -2.942,-1.652 0,-0.619 1.807,-1.136 2.994,-1.136 1.187,-0.05 2.838,0.362 2.838,0.981 0.052,0.568 -1.444,1.807 -2.89,1.807 m 2.994,-6.348 a 2.883,2.883 0 0 1 -2.994,2.735 2.85,2.85 0 0 1 -2.993,-2.735 V 128.8 a 2.884,2.884 0 0 1 2.993,-2.735 2.926,2.926 0 0 1 2.994,2.787 m 4.18,2.168 c -1.291,1.754 -2.993,1.805 -3.665,1.342 -0.671,-0.621 -0.154,-2.581 0.775,-3.664 1.084,-1.188 2.219,-1.962 2.993,-1.343 a 3.355,3.355 0 0 1 -0.1,3.665 m 1.135,-3.716 c -1.084,0.464 -1.961,-5.316 -0.619,-5.007 a 3.12,3.12 0 0 1 0.619,5.007 m -13.3,-1.053 a 2.931,2.931 0 0 1 -0.688,-4.077 2.887,2.887 0 0 1 3.9,-1.289 2.927,2.927 0 0 1 0.689,4.074 2.877,2.877 0 0 1 -3.9,1.292"
     style="fill:#ffffff"
     id="path176" />
  <path
     d="m 33.271,75.838 -0.084,-0.125 a 1.641,1.641 0 0 0 -0.96,-1.63 C 32.373,74.041 32.54,74 32.582,73.812 a 0.4,0.4 0 0 0 0.355,-0.314 c 0.063,-0.042 0.313,-0.187 0.272,-0.4 a 0.337,0.337 0 0 0 0.167,-0.376 c 0.145,-0.146 0.187,-0.272 0.125,-0.4 a 0.3,0.3 0 0 0 0.02,-0.438 c 0.126,-0.231 0.022,-0.481 -0.334,-0.439 a 0.553,0.553 0 0 0 -0.5,-0.168 0.34,0.34 0 0 0 -0.335,-0.1 0.41,0.41 0 0 0 -0.459,-0.042 c -0.189,-0.146 -0.314,-0.021 -0.46,0.021 -0.23,-0.084 -0.293,0.021 -0.4,0.063 -0.25,-0.063 -0.334,0.062 -0.459,0.187 H 30.43 a 1.749,1.749 0 0 0 -0.648,0.9 1.477,1.477 0 0 0 -0.647,-0.9 h -0.147 a 0.427,0.427 0 0 0 -0.46,-0.187 c -0.1,-0.042 -0.167,-0.147 -0.4,-0.063 a 1.559,1.559 0 0 0 -0.293,-0.084 0.4,0.4 0 0 0 -0.188,0.063 0.411,0.411 0 0 0 -0.46,0.042 c -0.209,-0.021 -0.293,0.021 -0.334,0.1 -0.042,0 -0.355,-0.042 -0.5,0.168 -0.355,-0.042 -0.459,0.209 -0.334,0.439 a 0.318,0.318 0 0 0 0.021,0.438 c -0.063,0.125 -0.021,0.251 0.125,0.4 a 0.35,0.35 0 0 0 0.168,0.376 c -0.022,0.23 0.209,0.355 0.271,0.4 0.021,0.125 0.083,0.251 0.356,0.314 0.041,0.187 0.209,0.229 0.354,0.271 a 1.662,1.662 0 0 0 -0.961,1.63 l -0.083,0.125 a 1.606,1.606 0 0 0 -0.293,2.424 5.13,5.13 0 0 0 0.23,0.73 1.84,1.84 0 0 0 1.129,1.421 4.289,4.289 0 0 0 1.065,0.607 1.806,1.806 0 0 0 1.317,0.585 h 0.02 a 1.806,1.806 0 0 0 1.317,-0.585 3.478,3.478 0 0 0 1.065,-0.607 1.763,1.763 0 0 0 1.128,-1.421 4.89,4.89 0 0 0 0.229,-0.73 1.536,1.536 0 0 0 -0.208,-2.424 M 32.83,75.671 c -0.02,0.376 -2.026,-1.337 -1.692,-1.4 a 1.353,1.353 0 0 1 1.692,1.4 m -0.9,1.9 a 1.186,1.186 0 0 1 -1.609,-0.46 1.17,1.17 0 0 1 0.209,-1.651 1.185,1.185 0 0 1 1.609,0.46 1.164,1.164 0 0 1 -0.209,1.651 m -1.379,-5.914 c 0.021,0.084 0.042,0.147 0.063,0.147 a 2.815,2.815 0 0 1 0.334,-0.356 c 0,0.064 -0.042,0.147 0.042,0.189 a 1.292,1.292 0 0 1 0.314,-0.272 c -0.064,0.1 -0.022,0.147 0.02,0.188 a 1.2,1.2 0 0 1 0.4,-0.251 c -0.063,0.063 -0.125,0.126 -0.041,0.21 a 1.368,1.368 0 0 1 0.48,-0.189 c -0.063,0.063 -0.188,0.125 -0.1,0.189 a 2.915,2.915 0 0 1 0.459,-0.1 c -0.083,0.063 -0.146,0.125 -0.083,0.188 a 1.143,1.143 0 0 1 0.543,-0.063 l -0.125,0.125 a 2.185,2.185 0 0 0 0.48,0.022 1.22,1.22 0 0 0 -0.188,0.376 c 0.021,0.02 0.125,0 0.208,0 -0.1,0.208 -0.271,0.25 -0.292,0.334 a 0.225,0.225 0 0 0 0.23,0 c -0.063,0.146 -0.209,0.229 -0.334,0.355 0.021,0.021 0.083,0.041 0.208,0.021 a 2.9,2.9 0 0 1 -0.376,0.313 1.207,1.207 0 0 0 0.209,0.042 2.233,2.233 0 0 1 -0.48,0.292 0.27,0.27 0 0 0 0.209,0.042 1.553,1.553 0 0 1 -0.5,0.209 c 0.042,0.063 0.062,0.063 0.146,0.084 -0.188,0.105 -0.48,0.063 -0.564,0.105 0.02,0.062 0.062,0.083 0.146,0.125 -0.313,0.02 -1.17,-0.021 -1.337,-0.669 a 6.59,6.59 0 0 1 1.922,-1.275 6.284,6.284 0 0 0 -2.09,1.108 c -0.73,-0.334 -0.25,-1.149 0.105,-1.484 m -0.71,2.362 v 0 c 0.5,0 1.107,0.354 1.107,0.71 0,0.313 -0.438,0.564 -1.107,0.543 -0.669,0 -1.108,-0.314 -1.108,-0.606 0,-0.251 0.543,-0.669 1.108,-0.647 M 27.32,73.752 c 0.084,-0.021 0.105,-0.021 0.147,-0.084 a 1.543,1.543 0 0 1 -0.5,-0.209 0.27,0.27 0 0 0 0.209,-0.041 2.31,2.31 0 0 1 -0.481,-0.293 c 0.083,0 0.188,0 0.209,-0.042 a 1.343,1.343 0 0 1 -0.376,-0.313 0.278,0.278 0 0 0 0.208,-0.021 2.74,2.74 0 0 1 -0.334,-0.355 0.291,0.291 0 0 0 0.23,0 c -0.041,-0.083 -0.209,-0.146 -0.292,-0.334 0.083,0 0.187,0.02 0.209,0 a 1.232,1.232 0 0 0 -0.189,-0.376 2.182,2.182 0 0 0 0.481,-0.021 l -0.125,-0.126 a 0.932,0.932 0 0 1 0.543,0.063 c 0.062,-0.041 0,-0.1 -0.083,-0.188 a 2.98,2.98 0 0 1 0.46,0.1 c 0.062,-0.063 -0.042,-0.125 -0.105,-0.189 a 1.2,1.2 0 0 1 0.481,0.189 c 0.083,-0.084 0,-0.147 -0.042,-0.209 a 1.165,1.165 0 0 1 0.4,0.251 c 0.042,-0.042 0.084,-0.084 0.022,-0.189 a 0.819,0.819 0 0 1 0.312,0.272 c 0.084,-0.063 0.042,-0.125 0.042,-0.188 a 1.772,1.772 0 0 1 0.335,0.355 0.336,0.336 0 0 0 0.063,-0.146 c 0.334,0.334 0.814,1.149 0.125,1.462 a 6.663,6.663 0 0 0 -2.089,-1.107 7.068,7.068 0 0 1 1.922,1.274 c -0.167,0.649 -1.024,0.69 -1.337,0.669 a 0.219,0.219 0 0 0 0.146,-0.125 1.685,1.685 0 0 1 -0.586,-0.084 m 1.234,0.5 c 0.354,0.063 -1.652,1.777 -1.693,1.4 a 1.355,1.355 0 0 1 1.693,-1.4 m -2.111,3.824 a 1.275,1.275 0 0 1 0.251,-2.027 c 0.543,-0.125 0.188,2.235 -0.251,2.027 M 28.3,80.1 a 1.191,1.191 0 0 1 -1.421,-0.564 c -0.314,-0.564 -0.272,-1.128 -0.063,-1.3 0.334,-0.208 0.857,0.064 1.253,0.523 0.356,0.4 0.523,1.128 0.231,1.337 m -0.543,-2.465 a 1.281,1.281 0 1 1 1.608,-0.46 1.188,1.188 0 0 1 -1.608,0.46 m 2.089,3.614 a 1.325,1.325 0 0 1 -1.191,-0.669 c 0,-0.25 0.731,-0.459 1.211,-0.459 0.481,-0.021 1.15,0.146 1.15,0.4 0.02,0.229 -0.585,0.731 -1.17,0.731 m 1.212,-2.569 a 1.168,1.168 0 0 1 -1.212,1.107 1.154,1.154 0 0 1 -1.212,-1.107 v -0.022 a 1.168,1.168 0 0 1 1.212,-1.107 1.185,1.185 0 0 1 1.212,1.129 m 1.692,0.877 c -0.522,0.71 -1.212,0.731 -1.483,0.543 -0.272,-0.25 -0.063,-1.045 0.313,-1.484 0.439,-0.48 0.9,-0.793 1.211,-0.542 a 1.356,1.356 0 0 1 -0.041,1.483 m 0.459,-1.5 c -0.438,0.187 -0.794,-2.152 -0.25,-2.026 a 1.262,1.262 0 0 1 0.25,2.026"
     style="fill:#3d3f38"
     id="path193" />
  <rect
     x="11.473"
     y="17.009001"
     width="4.2519999"
     height="2.835"
     style="fill:#ecf6fd"
     id="rect193" />
  <path
     d="m 12.946,17.793 a 0.709,0.709 0 1 1 -0.709,0.709 0.708,0.708 0 0 1 0.709,-0.709"
     style="fill:#33cc33"
     id="path194" />
</svg>
