<?xml version="1.0" encoding="UTF-8" standalone="no"?>
<svg
   viewBox="0 0 59.529 150.239"
   version="1.1"
   id="svg194"
   sodipodi:docname="raspberry-pi-pico-2.svg"
   inkscape:export-filename="raspberry-pi-pico-2.svg"
   inkscape:export-xdpi="96"
   inkscape:export-ydpi="96"
   inkscape:version="1.3.2 (091e20e, 2023-11-25)"
   xmlns:inkscape="http://www.inkscape.org/namespaces/inkscape"
   xmlns:sodipodi="http://sodipodi.sourceforge.net/DTD/sodipodi-0.dtd"
   xmlns="http://www.w3.org/2000/svg"
   xmlns:svg="http://www.w3.org/2000/svg">
  <defs
     id="defs194" />
  <sodipodi:namedview
     id="namedview194"
     pagecolor="#ffffff"
     bordercolor="#000000"
     borderopacity="0.25"
     inkscape:showpageshadow="2"
     inkscape:pageopacity="0.0"
     inkscape:pagecheckerboard="0"
     inkscape:deskcolor="#d1d1d1"
     inkscape:zoom="5.1934081"
     inkscape:cx="0.48137946"
     inkscape:cy="90.210511"
     inkscape:window-width="1920"
     inkscape:window-height="1110"
     inkscape:window-x="1920"
     inkscape:window-y="960"
     inkscape:window-maximized="1"
     inkscape:current-layer="svg194" />
  <path
     d="M59.529,15.537V10.755h0a1.18,1.18,0,0,1-.54-.143V15.68a1.177,1.177,0,0,1,.54-.143Z"
     style="fill:#004e29"
     id="path1" />
  <path
     d="M59.529,22.738V17.956h0a1.18,1.18,0,0,1-.54-.143v5.068a1.165,1.165,0,0,1,.54-.143Z"
     style="fill:#004e29"
     id="path2" />
  <path
     d="M59.529,29.938v-4.78h0a1.18,1.18,0,0,1-.54-.143v5.066a1.177,1.177,0,0,1,.54-.143Z"
     style="fill:#004e29"
     id="path3" />
  <path
     d="M59.529,37.137v-4.78h0a1.18,1.18,0,0,1-.54-.143V37.28a1.177,1.177,0,0,1,.54-.143Z"
     style="fill:#004e29"
     id="path4" />
  <path
     d="M59.529,44.336v-4.78h0a1.18,1.18,0,0,1-.54-.143v5.066a1.177,1.177,0,0,1,.54-.143Z"
     style="fill:#004e29"
     id="path5" />
  <path
     d="M59.529,51.536v-4.78h0a1.181,1.181,0,0,1-.54-.144v5.067a1.177,1.177,0,0,1,.54-.143Z"
     style="fill:#004e29"
     id="path6" />
  <path
     d="M59.529,58.736V53.955h0a1.18,1.18,0,0,1-.54-.143v5.067a1.177,1.177,0,0,1,.54-.143Z"
     style="fill:#004e29"
     id="path7" />
  <path
     d="M59.529,65.936V61.155h0a1.18,1.18,0,0,1-.54-.143v5.067a1.177,1.177,0,0,1,.54-.143Z"
     style="fill:#004e29"
     id="path8" />
  <path
     d="M59.529,73.137V68.356h0a1.18,1.18,0,0,1-.54-.143V73.28a1.177,1.177,0,0,1,.54-.143Z"
     style="fill:#004e29"
     id="path9" />
  <path
     d="M59.529,80.337V75.556h0a1.18,1.18,0,0,1-.54-.143v5.066a1.177,1.177,0,0,1,.54-.143h0"
     style="fill:#004e29"
     id="path10" />
  <path
     d="M59.529,87.536v-4.78h0a1.181,1.181,0,0,1-.54-.144v5.067a1.177,1.177,0,0,1,.54-.143Z"
     style="fill:#004e29"
     id="path11" />
  <path
     d="M59.529,94.736V89.955h0a1.18,1.18,0,0,1-.54-.143v5.067a1.177,1.177,0,0,1,.54-.143Z"
     style="fill:#004e29"
     id="path12" />
  <path
     d="M59.529,101.936V97.155h0a1.18,1.18,0,0,1-.54-.143v5.067a1.177,1.177,0,0,1,.54-.143Z"
     style="fill:#004e29"
     id="path13" />
  <path
     d="M59.529,109.137v-4.781h0a1.18,1.18,0,0,1-.54-.143v5.067a1.177,1.177,0,0,1,.54-.143Z"
     style="fill:#004e29"
     id="path14" />
  <path
     d="M59.529,116.337v-4.781h0a1.18,1.18,0,0,1-.54-.143v5.066a1.176,1.176,0,0,1,.54-.142Z"
     style="fill:#004e29"
     id="path15" />
  <path
     d="M59.529,123.537v-4.781h0a1.169,1.169,0,0,1-.54-.144v5.067a1.176,1.176,0,0,1,.54-.142h0"
     style="fill:#004e29"
     id="path16" />
  <path
     d="M59.529,130.736v-4.781h0a1.18,1.18,0,0,1-.54-.143v5.067a1.177,1.177,0,0,1,.54-.143Z"
     style="fill:#004e29"
     id="path17" />
  <path
     d="M59.529,137.936v-4.781h0a1.18,1.18,0,0,1-.54-.143v5.067a1.177,1.177,0,0,1,.54-.143Z"
     style="fill:#004e29"
     id="path18" />
  <path
     d="M59.529,145.136v-4.78h0a1.18,1.18,0,0,1-.54-.143v5.065a1.176,1.176,0,0,1,.54-.142Z"
     style="fill:#004e29"
     id="path19" />
  <path
     d="M59.529,147.555h0a1.18,1.18,0,0,1-.54-.143v1.577a.709.709,0,0,1-.709.709H38.032a1.174,1.174,0,0,1,.143.54H58.394a1.134,1.134,0,0,0,1.134-1.135v-1.549Z"
     style="fill:#004e29"
     id="path20" />
  <path
     d="M23.631,149.7a1.178,1.178,0,0,1,.143.541h4.78a1.183,1.183,0,0,1,.142-.541Z"
     style="fill:#004e29"
     id="path21" />
  <path
     d="M30.831,149.7a1.178,1.178,0,0,1,.143.541h4.782a1.183,1.183,0,0,1,.142-.541Z"
     style="fill:#004e29"
     id="path22" />
  <path
     d="M59.2,6l-.416.417a.707.707,0,0,1,.208.5V8.48a1.177,1.177,0,0,1,.54-.143h0V6.805A1.126,1.126,0,0,0,59.2,6"
     style="fill:#004e29"
     id="path23" />
  <path
     d="M21.5,149.7H1.251a.708.708,0,0,1-.5-.208l-.417.417a1.134,1.134,0,0,0,.8.332H21.355a1.178,1.178,0,0,1,.143-.541"
     style="fill:#004e29"
     id="path24" />
  <path
     d="m 0.542,6.921 v 1.558 a 1.2,1.2 0 0 1 0.67,1.067 1.2,1.2 0 0 1 -0.67,1.066 v 5.069 a 1.183,1.183 0 0 1 0,2.132 v 5.068 a 1.2,1.2 0 0 1 0.67,1.066 1.2,1.2 0 0 1 -0.67,1.068 v 5.065 a 1.2,1.2 0 0 1 0.67,1.067 1.2,1.2 0 0 1 -0.67,1.067 v 5.065 a 1.2,1.2 0 0 1 0.67,1.068 1.2,1.2 0 0 1 -0.67,1.066 v 5.066 a 1.2,1.2 0 0 1 0.67,1.068 1.2,1.2 0 0 1 -0.67,1.066 v 5.067 a 1.2,1.2 0 0 1 0.67,1.066 1.2,1.2 0 0 1 -0.67,1.067 v 5.067 a 1.2,1.2 0 0 1 0.67,1.066 1.206,1.206 0 0 1 -0.67,1.068 v 5.066 a 1.2,1.2 0 0 1 0.67,1.066 1.2,1.2 0 0 1 -0.67,1.067 v 5.066 a 1.2,1.2 0 0 1 0.67,1.068 1.2,1.2 0 0 1 -0.67,1.066 v 5.066 a 1.2,1.2 0 0 1 0.67,1.068 1.2,1.2 0 0 1 -0.67,1.066 v 5.067 a 1.2,1.2 0 0 1 0.67,1.066 1.2,1.2 0 0 1 -0.67,1.067 v 5.067 a 1.2,1.2 0 0 1 0.67,1.066 1.206,1.206 0 0 1 -0.67,1.068 v 5.066 a 1.2,1.2 0 0 1 0.67,1.066 1.2,1.2 0 0 1 -0.67,1.067 v 5.066 a 1.2,1.2 0 0 1 0.67,1.068 1.2,1.2 0 0 1 -0.67,1.066 v 5.066 a 1.2,1.2 0 0 1 0.67,1.068 1.2,1.2 0 0 1 -0.67,1.066 v 5.067 a 1.2,1.2 0 0 1 0.67,1.066 1.2,1.2 0 0 1 -0.67,1.067 v 5.067 a 1.2,1.2 0 0 1 0.67,1.066 1.2,1.2 0 0 1 -0.67,1.068 v 5.066 a 1.2,1.2 0 0 1 0.67,1.066 1.2,1.2 0 0 1 -0.67,1.067 v 5.065 a 1.2,1.2 0 0 1 0.67,1.068 1.2,1.2 0 0 1 -0.67,1.066 v 1.577 a 0.708,0.708 0 0 0 0.709,0.708 H 21.5 a 1.185,1.185 0 0 1 2.134,0 H 28.7 a 1.185,1.185 0 0 1 2.134,0 H 35.9 a 1.185,1.185 0 0 1 2.134,0 h 20.245 a 0.708,0.708 0 0 0 0.708,-0.708 v -1.577 a 1.185,1.185 0 0 1 0,-2.134 v -5.064 a 1.185,1.185 0 0 1 0,-2.134 v -5.066 a 1.185,1.185 0 0 1 0,-2.134 v -5.067 a 1.185,1.185 0 0 1 0,-2.133 v -5.067 a 1.185,1.185 0 0 1 0,-2.134 v -5.065 a 1.185,1.185 0 0 1 0,-2.134 v -5.066 a 1.185,1.185 0 0 1 0,-2.134 v -5.066 a 1.185,1.185 0 0 1 0,-2.134 v -5.067 a 1.185,1.185 0 0 1 0,-2.133 v -5.067 a 1.185,1.185 0 0 1 0,-2.134 v -5.065 a 1.185,1.185 0 0 1 0,-2.134 v -5.066 a 1.185,1.185 0 0 1 0,-2.134 v -5.066 a 1.185,1.185 0 0 1 0,-2.134 v -5.067 a 1.185,1.185 0 0 1 0,-2.133 v -5.067 a 1.185,1.185 0 0 1 0,-2.133 v -5.066 a 1.185,1.185 0 0 1 0,-2.134 v -5.066 a 1.185,1.185 0 0 1 0,-2.134 v -5.065 a 1.185,1.185 0 0 1 0,-2.134 v -5.068 a 1.184,1.184 0 0 1 0,-2.132 v -5.069 a 1.185,1.185 0 0 1 0,-2.133 V 6.921 A 0.708,0.708 0 0 0 58.279,6.212 H 1.251 A 0.708,0.708 0 0 0 0.542,6.921 m 4.023,140.621 a 1.2,1.2 0 1 1 1.2,-1.2 1.2,1.2 0 0 1 -1.2,1.2 m 1.2,-8.4 a 1.2,1.2 0 1 1 -1.2,-1.2 1.2,1.2 0 0 1 1.2,1.2 m 0,-7.2 a 1.2,1.2 0 1 1 -1.2,-1.2 1.2,1.2 0 0 1 1.2,1.2 m 0,-7.2 a 1.2,1.2 0 1 1 -1.2,-1.2 1.2,1.2 0 0 1 1.2,1.2 m 0,-7.2 a 1.2,1.2 0 1 1 -1.2,-1.2 1.2,1.2 0 0 1 1.2,1.2 m 0,-7.2 a 1.2,1.2 0 1 1 -1.2,-1.2 1.2,1.2 0 0 1 1.2,1.2 m 0,-7.2 a 1.2,1.2 0 1 1 -1.2,-1.2 1.2,1.2 0 0 1 1.2,1.2 m 0,-7.2 a 1.2,1.2 0 1 1 -1.2,-1.2 1.2,1.2 0 0 1 1.2,1.2 m 0,-7.2 a 1.2,1.2 0 1 1 -1.2,-1.2 1.2,1.2 0 0 1 1.2,1.2 m 0,-7.2 a 1.2,1.2 0 1 1 -1.2,-1.2 1.2,1.2 0 0 1 1.2,1.2 m 0,-7.2 a 1.2,1.2 0 1 1 -1.2,-1.2 1.2,1.2 0 0 1 1.2,1.2 m 0,-7.2 a 1.2,1.2 0 1 1 -1.2,-1.2 1.2,1.2 0 0 1 1.2,1.2 m 0,-7.2 a 1.2,1.2 0 1 1 -1.2,-1.2 1.2,1.2 0 0 1 1.2,1.2 m 0,-7.2 a 1.2,1.2 0 1 1 -1.2,-1.2 1.2,1.2 0 0 1 1.2,1.2 m 0,-7.2 a 1.2,1.2 0 1 1 -1.2,-1.2 1.2,1.2 0 0 1 1.2,1.2 m 0,-7.2 a 1.2,1.2 0 1 1 -1.2,-1.2 1.2,1.2 0 0 1 1.2,1.2 m 0,-7.2 a 1.2,1.2 0 1 1 -1.2,-1.2 1.2,1.2 0 0 1 1.2,1.2 m 0,-7.2 a 1.2,1.2 0 1 1 -1.2,-1.2 1.2,1.2 0 0 1 1.2,1.2 m 0,-7.2 a 1.2,1.2 0 1 1 -1.2,-1.2 1.2,1.2 0 0 1 1.2,1.2 m 0,-7.2 a 1.2,1.2 0 1 1 -1.2,-1.2 1.2,1.2 0 0 1 1.2,1.2 m 7.86,137.4 a 2.52,2.52 0 1 1 2.519,-2.519 2.522,2.522 0 0 1 -2.519,2.519 m 0,-132.95 A 2.519,2.519 0 1 1 16.144,11.472 2.522,2.522 0 0 1 13.622,14 m 8.943,133.54 a 1.2,1.2 0 1 1 1.2,-1.2 1.2,1.2 0 0 1 -1.2,1.2 m 7.2,0 a 1.2,1.2 0 1 1 1.2,-1.2 1.2,1.2 0 0 1 -1.2,1.2 m 24,-1.195 a 1.2,1.2 0 1 1 1.2,1.2 1.2,1.2 0 0 1 -1.2,-1.2 m 0,-7.2 a 1.2,1.2 0 1 1 1.2,1.2 1.2,1.2 0 0 1 -1.2,-1.2 m 0,-7.2 a 1.2,1.2 0 1 1 1.2,1.2 1.2,1.2 0 0 1 -1.2,-1.2 m 0,-7.2 a 1.2,1.2 0 1 1 1.2,1.2 1.2,1.2 0 0 1 -1.2,-1.2 m 0,-7.2 a 1.2,1.2 0 1 1 1.2,1.2 1.2,1.2 0 0 1 -1.2,-1.2 m 0,-7.2 a 1.2,1.2 0 1 1 1.2,1.2 1.2,1.2 0 0 1 -1.2,-1.2 m 0,-7.2 a 1.2,1.2 0 1 1 1.2,1.2 1.2,1.2 0 0 1 -1.2,-1.2 m 0,-7.2 a 1.2,1.2 0 1 1 1.2,1.2 1.2,1.2 0 0 1 -1.2,-1.2 m 0,-7.2 a 1.2,1.2 0 1 1 1.2,1.2 1.2,1.2 0 0 1 -1.2,-1.2 m 0,-7.2 a 1.2,1.2 0 1 1 1.2,1.2 1.2,1.2 0 0 1 -1.2,-1.2 m 0,-7.2 a 1.2,1.2 0 1 1 1.2,1.2 1.2,1.2 0 0 1 -1.2,-1.2 m 0,-7.2 a 1.2,1.2 0 1 1 1.2,1.2 1.2,1.2 0 0 1 -1.2,-1.2 m 0,-7.2 a 1.2,1.2 0 1 1 1.2,1.2 1.2,1.2 0 0 1 -1.2,-1.2 m 0,-7.2 a 1.2,1.2 0 1 1 1.2,1.2 1.2,1.2 0 0 1 -1.2,-1.2 m 0,-7.2 a 1.2,1.2 0 1 1 1.2,1.2 1.2,1.2 0 0 1 -1.2,-1.2 m 0,-7.2 a 1.2,1.2 0 1 1 1.2,1.2 1.2,1.2 0 0 1 -1.2,-1.2 m 0,-7.2 a 1.2,1.2 0 1 1 1.2,1.2 1.2,1.2 0 0 1 -1.2,-1.2 m 0,-7.2 a 1.2,1.2 0 1 1 1.2,1.2 1.2,1.2 0 0 1 -1.2,-1.2 m 0,-7.2 a 1.2,1.2 0 1 1 1.2,1.2 1.2,1.2 0 0 1 -1.2,-1.2 m 0,-7.2 a 1.2,1.2 0 1 1 1.2,1.2 1.2,1.2 0 0 1 -1.2,-1.2 m -16.8,137.995 a 1.2,1.2 0 1 1 1.2,-1.2 1.2,1.2 0 0 1 -1.2,1.2 m 8.943,-0.591 a 2.52,2.52 0 1 1 2.519,-2.519 2.522,2.522 0 0 1 -2.519,2.519 m 0,-132.95 A 2.519,2.519 0 1 1 48.427,11.479 2.522,2.522 0 0 1 45.908,14"
     style="fill:#006837"
     id="path25"
     sodipodi:insensitive="true" />
  <path
     d="M58.4,5.671H1.134A1.134,1.134,0,0,0,0,6.805V8.336H0a1.162,1.162,0,0,1,.54.144V6.921a.709.709,0,0,1,.709-.709H58.279a.7.7,0,0,1,.5.208L59.2,6a1.131,1.131,0,0,0-.8-.332"
     style="fill:#33865f"
     id="path26" />
  <path
     d="M0,17.956v4.782H0a1.158,1.158,0,0,1,.54.143V17.813a1.17,1.17,0,0,1-.54.143Z"
     style="fill:#33865f"
     id="path27" />
  <path
     d="M0,25.156v4.781H0a1.17,1.17,0,0,1,.54.143V25.013a1.158,1.158,0,0,1-.54.143H0"
     style="fill:#33865f"
     id="path28" />
  <path
     d="M0,32.356v4.781H0a1.169,1.169,0,0,1,.54.142V32.214a1.169,1.169,0,0,1-.54.142Z"
     style="fill:#33865f"
     id="path29" />
  <path
     d="M0,39.556v4.781H0a1.17,1.17,0,0,1,.54.143V39.413a1.17,1.17,0,0,1-.54.143Z"
     style="fill:#33865f"
     id="path30" />
  <path
     d="M0,46.755v4.781H0a1.17,1.17,0,0,1,.54.143V46.612a1.159,1.159,0,0,1-.54.144Z"
     style="fill:#33865f"
     id="path31" />
  <path
     d="M0,53.955v4.781H0a1.17,1.17,0,0,1,.54.143V53.812a1.17,1.17,0,0,1-.54.143Z"
     style="fill:#33865f"
     id="path32" />
  <path
     d="M0,61.155v4.781H0a1.17,1.17,0,0,1,.54.143V61.012a1.17,1.17,0,0,1-.54.143Z"
     style="fill:#33865f"
     id="path33" />
  <path
     d="M0,68.355v4.781H0a1.17,1.17,0,0,1,.54.143V68.212a1.17,1.17,0,0,1-.54.143Z"
     style="fill:#33865f"
     id="path34" />
  <path
     d="M0,75.556v4.781H0a1.17,1.17,0,0,1,.54.143V75.413a1.17,1.17,0,0,1-.54.143Z"
     style="fill:#33865f"
     id="path35" />
  <path
     d="M0,82.755v4.781H0a1.17,1.17,0,0,1,.54.143V82.612a1.159,1.159,0,0,1-.54.144Z"
     style="fill:#33865f"
     id="path36" />
  <path
     d="M0,89.955v4.781H0a1.17,1.17,0,0,1,.54.143V89.812a1.17,1.17,0,0,1-.54.143Z"
     style="fill:#33865f"
     id="path37" />
  <path
     d="M0,97.155v4.781H0a1.17,1.17,0,0,1,.54.143V97.012a1.17,1.17,0,0,1-.54.143Z"
     style="fill:#33865f"
     id="path38" />
  <path
     d="M0,104.355v4.781H0a1.17,1.17,0,0,1,.54.143v-5.067a1.17,1.17,0,0,1-.54.143Z"
     style="fill:#33865f"
     id="path39" />
  <path
     d="M0,111.556v4.781H0a1.17,1.17,0,0,1,.54.143v-5.067a1.17,1.17,0,0,1-.54.143Z"
     style="fill:#33865f"
     id="path40" />
  <path
     d="M0,118.755v4.781H0a1.17,1.17,0,0,1,.54.143v-5.066a1.17,1.17,0,0,1-.54.143Z"
     style="fill:#33865f"
     id="path41" />
  <path
     d="M0,125.955v4.781H0a1.17,1.17,0,0,1,.54.143v-5.067a1.17,1.17,0,0,1-.54.143Z"
     style="fill:#33865f"
     id="path42" />
  <path
     d="M0,133.155v4.781H0a1.17,1.17,0,0,1,.54.143v-5.067a1.17,1.17,0,0,1-.54.143Z"
     style="fill:#33865f"
     id="path43" />
  <path
     d="M0,140.355v4.78H0a1.17,1.17,0,0,1,.54.143v-5.066a1.17,1.17,0,0,1-.54.143Z"
     style="fill:#33865f"
     id="path44" />
  <path
     d="M0,10.755v4.782H0a1.159,1.159,0,0,1,.54.144V10.612a1.158,1.158,0,0,1-.54.143Z"
     style="fill:#33865f"
     id="path45" />
  <path
     d="M.333,149.906l.416-.417a.708.708,0,0,1-.207-.5v-1.576a1.177,1.177,0,0,1-.541.142V149.1a1.134,1.134,0,0,0,.332.8"
     style="fill:#33865f"
     id="path46" />
  <path
     d="M6.54,16.745A1.977,1.977,0,0,0,4.565,14.77H0v.766H0a1.21,1.21,0,0,1,1.209,1.209A1.211,1.211,0,0,1,0,17.955H0v.765H4.565A1.977,1.977,0,0,0,6.54,16.745m-1.975,1.2a1.2,1.2,0,1,1,1.2-1.2,1.2,1.2,0,0,1-1.2,1.2"
     style="fill:#9a916c"
     id="path47" />
  <path
     d="M6.54,21.971H0v.766H0a1.211,1.211,0,0,1,1.209,1.21A1.21,1.21,0,0,1,0,25.156H0v.765H6.54ZM4.565,25.143a1.2,1.2,0,1,1,1.2-1.2,1.2,1.2,0,0,1-1.2,1.2"
     style="fill:#9a916c"
     id="path48" />
  <path
     d="M6.54,31.146A1.978,1.978,0,0,0,4.565,29.17H0v.766H0a1.21,1.21,0,0,1,0,2.42H0v.765H4.565A1.978,1.978,0,0,0,6.54,31.146m-1.975,1.2a1.2,1.2,0,1,1,1.2-1.2,1.2,1.2,0,0,1-1.2,1.2"
     style="fill:#9a916c"
     id="path49" />
  <path
     d="M6.54,38.345a1.978,1.978,0,0,0-1.975-1.976H0v.766H0a1.211,1.211,0,0,1,1.209,1.21A1.21,1.21,0,0,1,0,39.554H0v.765H4.565A1.976,1.976,0,0,0,6.54,38.345m-1.975,1.2a1.2,1.2,0,1,1,1.2-1.2,1.2,1.2,0,0,1-1.2,1.2"
     style="fill:#9a916c"
     id="path50" />
  <path
     d="M6.54,45.545a1.978,1.978,0,0,0-1.975-1.976H0v.766H0a1.211,1.211,0,0,1,1.209,1.21A1.21,1.21,0,0,1,0,46.754H0v.765H4.565A1.976,1.976,0,0,0,6.54,45.545m-1.975,1.2a1.2,1.2,0,1,1,1.2-1.2,1.2,1.2,0,0,1-1.2,1.2"
     style="fill:#9a916c"
     id="path51" />
  <path
     d="M6.54,52.745a1.978,1.978,0,0,0-1.975-1.976H0v.766H0a1.211,1.211,0,0,1,1.209,1.21A1.21,1.21,0,0,1,0,53.954H0v.765H4.565A1.976,1.976,0,0,0,6.54,52.745m-1.975,1.2a1.2,1.2,0,1,1,1.2-1.2,1.2,1.2,0,0,1-1.2,1.2"
     style="fill:#9a916c"
     id="path52" />
  <path
     d="M6.54,57.97H0v.766H0a1.211,1.211,0,0,1,1.209,1.21A1.21,1.21,0,0,1,0,61.155H0v.765H6.54ZM4.565,61.142a1.2,1.2,0,1,1,1.2-1.2,1.2,1.2,0,0,1-1.2,1.2"
     style="fill:#9a916c"
     id="path53" />
  <path
     d="M6.54,67.145A1.977,1.977,0,0,0,4.565,65.17H0v.766H0a1.21,1.21,0,0,1,1.209,1.209A1.211,1.211,0,0,1,0,68.355H0v.765H4.565A1.977,1.977,0,0,0,6.54,67.145m-1.975,1.2a1.2,1.2,0,1,1,1.2-1.2,1.2,1.2,0,0,1-1.2,1.2"
     style="fill:#9a916c"
     id="path54" />
  <path
     d="M6.54,74.345A1.977,1.977,0,0,0,4.565,72.37H0v.766H0a1.21,1.21,0,0,1,1.209,1.209A1.211,1.211,0,0,1,0,75.555H0v.765H4.565A1.977,1.977,0,0,0,6.54,74.345m-1.975,1.2a1.2,1.2,0,1,1,1.2-1.2,1.2,1.2,0,0,1-1.2,1.2"
     style="fill:#9a916c"
     id="path55" />
  <path
     d="M6.54,81.545A1.977,1.977,0,0,0,4.565,79.57H0v.766H0a1.21,1.21,0,0,1,1.209,1.209A1.211,1.211,0,0,1,0,82.755H0v.765H4.565A1.977,1.977,0,0,0,6.54,81.545m-1.975,1.2a1.2,1.2,0,1,1,1.2-1.2,1.2,1.2,0,0,1-1.2,1.2"
     style="fill:#9a916c"
     id="path56" />
  <path
     d="M6.54,88.745A1.977,1.977,0,0,0,4.565,86.77H0v.766H0a1.21,1.21,0,0,1,1.209,1.209A1.211,1.211,0,0,1,0,89.955H0v.765H4.565A1.977,1.977,0,0,0,6.54,88.745m-1.975,1.2a1.2,1.2,0,1,1,1.2-1.2,1.2,1.2,0,0,1-1.2,1.2"
     style="fill:#9a916c"
     id="path57" />
  <path
     d="M6.54,93.97H0v.766H0a1.21,1.21,0,0,1,0,2.42H0v.765H6.54ZM4.565,97.143a1.2,1.2,0,1,1,1.2-1.2,1.2,1.2,0,0,1-1.2,1.2"
     style="fill:#9a916c"
     id="path58" />
  <path
     d="M6.54,103.146a1.978,1.978,0,0,0-1.975-1.976H0v.766H0a1.211,1.211,0,0,1,1.209,1.21A1.21,1.21,0,0,1,0,104.355H0v.766H4.565a1.978,1.978,0,0,0,1.975-1.975m-1.975,1.2a1.2,1.2,0,1,1,1.2-1.2,1.2,1.2,0,0,1-1.2,1.2"
     style="fill:#9a916c"
     id="path59" />
  <path
     d="M6.54,110.346a1.978,1.978,0,0,0-1.975-1.976H0v.766H0a1.211,1.211,0,0,1,1.209,1.21A1.21,1.21,0,0,1,0,111.555H0v.765H4.565a1.976,1.976,0,0,0,1.975-1.974m-1.975,1.2a1.2,1.2,0,1,1,1.2-1.2,1.2,1.2,0,0,1-1.2,1.2"
     style="fill:#9a916c"
     id="path60" />
  <path
     d="M6.54,117.546a1.978,1.978,0,0,0-1.975-1.976H0v.766H0a1.211,1.211,0,0,1,1.209,1.21A1.21,1.21,0,0,1,0,118.755H0v.765H4.565a1.976,1.976,0,0,0,1.975-1.974m-1.975,1.2a1.2,1.2,0,1,1,1.2-1.2,1.2,1.2,0,0,1-1.2,1.2"
     style="fill:#9a916c"
     id="path61" />
  <path
     d="M6.54,124.746a1.978,1.978,0,0,0-1.975-1.976H0v.766H0a1.211,1.211,0,0,1,1.209,1.21A1.21,1.21,0,0,1,0,125.955H0v.765H4.565a1.976,1.976,0,0,0,1.975-1.974m-1.975,1.2a1.2,1.2,0,1,1,1.2-1.2,1.2,1.2,0,0,1-1.2,1.2"
     style="fill:#9a916c"
     id="path62" />
  <path
     d="M6.54,129.971H0v.766H0a1.21,1.21,0,0,1,1.209,1.209A1.211,1.211,0,0,1,0,133.156H0v.765H6.54Zm-1.975,3.172a1.2,1.2,0,1,1,1.2-1.2,1.2,1.2,0,0,1-1.2,1.2"
     style="fill:#9a916c"
     id="path63" />
  <path
     d="M6.54,139.146a1.977,1.977,0,0,0-1.975-1.975H0v.766H0a1.21,1.21,0,0,1,1.209,1.209A1.211,1.211,0,0,1,0,140.356H0v.765H4.565a1.977,1.977,0,0,0,1.975-1.975m-1.975,1.2a1.2,1.2,0,1,1,1.2-1.2,1.2,1.2,0,0,1-1.2,1.2"
     style="fill:#9a916c"
     id="path64" />
  <path
     d="M6.54,146.345a1.977,1.977,0,0,0-1.975-1.975H0v.766H0a1.21,1.21,0,0,1,1.209,1.209A1.211,1.211,0,0,1,0,147.555H0v.765H4.565a1.977,1.977,0,0,0,1.975-1.975m-1.975,1.2a1.2,1.2,0,1,1,1.2-1.2,1.2,1.2,0,0,1-1.2,1.2"
     style="fill:#9a916c"
     id="path65" />
  <path
     d="M54.965,18.721h4.564v-.766a1.21,1.21,0,1,1,0-2.419V14.77H54.965a1.976,1.976,0,0,0,0,3.951m-1.2-1.976a1.2,1.2,0,1,1,1.2,1.2,1.2,1.2,0,0,1-1.2-1.2"
     style="fill:#9a916c"
     id="path66" />
  <path
     d="M52.99,25.921h6.539v-.766a1.21,1.21,0,1,1,0-2.419V21.97H52.99Zm.778-1.975a1.2,1.2,0,1,1,1.2,1.2,1.2,1.2,0,0,1-1.2-1.2"
     style="fill:#9a916c"
     id="path67" />
  <path
     d="M54.965,33.12h4.564v-.765a1.21,1.21,0,1,1,0-2.419v-.767H54.965a1.976,1.976,0,0,0,0,3.951m-1.2-1.975a1.2,1.2,0,1,1,1.2,1.2,1.2,1.2,0,0,1-1.2-1.2"
     style="fill:#9a916c"
     id="path68" />
  <path
     d="M54.965,40.32h4.564v-.766a1.21,1.21,0,1,1,0-2.419v-.766H54.965a1.976,1.976,0,0,0,0,3.951m-1.2-1.975a1.2,1.2,0,1,1,1.2,1.2,1.2,1.2,0,0,1-1.2-1.2"
     style="fill:#9a916c"
     id="path69" />
  <path
     d="M54.965,47.52h4.564v-.766a1.21,1.21,0,1,1,0-2.419v-.766H54.965a1.976,1.976,0,0,0,0,3.951m-1.2-1.975a1.2,1.2,0,1,1,1.2,1.2,1.2,1.2,0,0,1-1.2-1.2"
     style="fill:#9a916c"
     id="path70" />
  <path
     d="M54.965,54.72h4.564v-.766a1.21,1.21,0,1,1,0-2.419v-.766H54.965a1.976,1.976,0,0,0,0,3.951m-1.2-1.975a1.2,1.2,0,1,1,1.2,1.2,1.2,1.2,0,0,1-1.2-1.2"
     style="fill:#9a916c"
     id="path71" />
  <path
     d="M52.99,61.92h6.539v-.766a1.21,1.21,0,1,1,0-2.419v-.766H52.99Zm.778-1.975a1.2,1.2,0,1,1,1.2,1.2,1.2,1.2,0,0,1-1.2-1.2"
     style="fill:#9a916c"
     id="path72" />
  <path
     d="M54.965,69.121h4.564v-.766a1.21,1.21,0,1,1,0-2.419V65.17H54.965a1.976,1.976,0,0,0,0,3.951m-1.2-1.976a1.2,1.2,0,1,1,1.2,1.2,1.2,1.2,0,0,1-1.2-1.2"
     style="fill:#9a916c"
     id="path73" />
  <path
     d="M54.965,76.321h4.564v-.766a1.21,1.21,0,1,1,0-2.419V72.37H54.965a1.976,1.976,0,0,0,0,3.951m-1.2-1.976a1.2,1.2,0,1,1,1.2,1.2,1.2,1.2,0,0,1-1.2-1.2"
     style="fill:#9a916c"
     id="path74" />
  <path
     d="M54.965,83.521h4.564v-.766a1.21,1.21,0,1,1,0-2.419v-.767H54.965a1.976,1.976,0,0,0,0,3.952m-1.2-1.976a1.2,1.2,0,1,1,1.2,1.2,1.2,1.2,0,0,1-1.2-1.2"
     style="fill:#9a916c"
     id="path75" />
  <path
     d="M54.965,90.721h4.564v-.767a1.21,1.21,0,1,1,0-2.419v-.766H54.965a1.976,1.976,0,0,0,0,3.952m-1.2-1.976a1.2,1.2,0,1,1,1.2,1.2,1.2,1.2,0,0,1-1.2-1.2"
     style="fill:#9a916c"
     id="path76" />
  <path
     d="M52.99,97.92h6.539v-.766a1.21,1.21,0,1,1,0-2.419v-.766H52.99Zm.778-1.975a1.2,1.2,0,1,1,1.2,1.2,1.2,1.2,0,0,1-1.2-1.2"
     style="fill:#9a916c"
     id="path77" />
  <path
     d="M54.965,105.12h4.564v-.766a1.21,1.21,0,1,1,0-2.419v-.766H54.965a1.976,1.976,0,0,0,0,3.951m-1.2-1.975a1.2,1.2,0,1,1,1.2,1.2,1.2,1.2,0,0,1-1.2-1.2"
     style="fill:#9a916c"
     id="path78" />
  <path
     d="M54.965,112.321h4.564v-.766a1.21,1.21,0,1,1,0-2.419v-.766H54.965a1.976,1.976,0,0,0,0,3.951m-1.2-1.975a1.2,1.2,0,1,1,1.2,1.2,1.2,1.2,0,0,1-1.2-1.2"
     style="fill:#9a916c"
     id="path79" />
  <path
     d="M54.965,119.521h4.564v-.766a1.21,1.21,0,1,1,0-2.419v-.766H54.965a1.976,1.976,0,0,0,0,3.951m-1.2-1.975a1.2,1.2,0,1,1,1.2,1.2,1.2,1.2,0,0,1-1.2-1.2"
     style="fill:#9a916c"
     id="path80" />
  <path
     d="M54.965,126.721h4.564v-.766a1.21,1.21,0,1,1,0-2.419v-.766H54.965a1.976,1.976,0,0,0,0,3.951m-1.2-1.975a1.2,1.2,0,1,1,1.2,1.2,1.2,1.2,0,0,1-1.2-1.2"
     style="fill:#9a916c"
     id="path81" />
  <path
     d="M52.99,133.921h6.539v-.766a1.21,1.21,0,1,1,0-2.419v-.766H52.99Zm.778-1.976a1.2,1.2,0,1,1,1.2,1.2,1.2,1.2,0,0,1-1.2-1.2"
     style="fill:#9a916c"
     id="path82" />
  <path
     d="M54.965,141.121h4.564v-.766a1.21,1.21,0,1,1,0-2.419v-.766H54.965a1.976,1.976,0,0,0,0,3.951m-1.2-1.976a1.2,1.2,0,1,1,1.2,1.2,1.2,1.2,0,0,1-1.2-1.2"
     style="fill:#9a916c"
     id="path83" />
  <path
     d="M54.965,148.321h4.564v-.766a1.21,1.21,0,1,1,0-2.419v-.767H54.965a1.976,1.976,0,0,0,0,3.952m-1.2-1.976a1.2,1.2,0,1,1,1.2,1.2,1.2,1.2,0,0,1-1.2-1.2"
     style="fill:#9a916c"
     id="path84" />
  <path
     d="M22.565,144.368a1.979,1.979,0,0,0-1.976,1.975v3.9h.766a1.21,1.21,0,1,1,2.42,0h.765v-3.9a1.979,1.979,0,0,0-1.975-1.975m1.2,1.976a1.2,1.2,0,1,1-1.2-1.2,1.2,1.2,0,0,1,1.2,1.2"
     style="fill:#9a916c"
     id="path85" />
  <path
     d="M27.788,144.43v5.809h.766a1.21,1.21,0,1,1,2.419,0h.765V144.43Zm3.173,1.914a1.2,1.2,0,1,1-1.2-1.2,1.2,1.2,0,0,1,1.2,1.2"
     style="fill:#9a916c"
     id="path86" />
  <path
     d="M36.966,144.368a1.979,1.979,0,0,0-1.976,1.975v3.9h.766a1.21,1.21,0,1,1,2.419,0h.765v-3.9a1.977,1.977,0,0,0-1.974-1.975m1.2,1.976a1.2,1.2,0,1,1-1.2-1.2,1.2,1.2,0,0,1,1.2,1.2"
     style="fill:#9a916c"
     id="path87" />
  <path
     d="M54.965,11.52h4.564v-.766a1.21,1.21,0,1,1,0-2.419V7.569H54.965a1.976,1.976,0,0,0,0,3.951m-1.2-1.976a1.2,1.2,0,1,1,1.2,1.2,1.2,1.2,0,0,1-1.2-1.2"
     style="fill:#9a916c"
     id="path88" />
  <path
     d="M6.54,9.544A1.977,1.977,0,0,0,4.565,7.569H0v.766H0A1.21,1.21,0,0,1,1.211,9.544,1.211,1.211,0,0,1,0,10.754H0v.765H4.565A1.977,1.977,0,0,0,6.54,9.544m-1.975,1.2a1.2,1.2,0,1,1,1.2-1.2,1.2,1.2,0,0,1-1.2,1.2"
     style="fill:#9a916c"
     id="path89" />
  <path
     d="M13.622,148.949a4.52,4.52,0,1,1,4.52-4.519,4.524,4.524,0,0,1-4.52,4.519m0-7.039a2.52,2.52,0,1,0,2.52,2.52,2.523,2.523,0,0,0-2.52-2.52"
     style="fill:#fcee21"
     id="path90" />
  <path
     d="M45.908,148.949a4.52,4.52,0,1,1,4.52-4.519,4.525,4.525,0,0,1-4.52,4.519m0-7.039a2.52,2.52,0,1,0,2.52,2.52,2.523,2.523,0,0,0-2.52-2.52"
     style="fill:#fcee21"
     id="path91" />
  <path
     d="M13.622,16a4.52,4.52,0,1,1,4.52-4.519A4.524,4.524,0,0,1,13.622,16m0-7.039a2.519,2.519,0,1,0,2.52,2.52,2.522,2.522,0,0,0-2.52-2.52"
     style="fill:#fcee21"
     id="path92" />
  <path
     d="M45.908,16a4.52,4.52,0,1,1,4.52-4.519A4.525,4.525,0,0,1,45.908,16m0-7.039a2.519,2.519,0,1,0,2.52,2.52,2.522,2.522,0,0,0-2.52-2.52"
     style="fill:#fcee21"
     id="path93" />
  <rect
     x="19.778"
     y="67.967003"
     width="19.975"
     height="19.974001"
     style="fill:#30312e"
     id="rect93"
     sodipodi:insensitive="true" />
  <path
     d="M39.12,17.009H20.411a.567.567,0,0,1-.567-.567V2.506a.566.566,0,0,1,.567-.566H39.12a.566.566,0,0,1,.566.566V16.442a.567.567,0,0,1-.566.567"
     style="fill:#363a44"
     id="path94" />
  <path
     d="M21.264,0a.565.565,0,0,0-.542.4l-.312,1.03L19.843,2V16.441a.567.567,0,0,0,.567.568h3.46a.284.284,0,0,0,.284-.283V15.9a.569.569,0,0,0-.295-.5l-1.926-1.052a.567.567,0,0,1-.295-.5v-.827H22.9V12.07H24.84v.953h1.144v1.971a.567.567,0,0,0,.567.568h.919V14.539h4.59v1.023h.92a.567.567,0,0,0,.566-.568V13.023H34.69V12.07h1.944v.953h1.258v.827a.567.567,0,0,1-.3.5L35.671,15.4a.568.568,0,0,0-.3.5v.829a.284.284,0,0,0,.284.283h3.459a.568.568,0,0,0,.568-.568V2l-.568-.567L38.809.4a.567.567,0,0,0-.543-.4Z"
     style="fill:#dbddda"
     id="path95" />
  <path
     d="M20.465,2.883a11.555,11.555,0,0,1-.729-1.05,3.83,3.83,0,0,1-.3-.61,4.275,4.275,0,0,1-.184-.644A.34.34,0,0,1,19.908.4h0a3.073,3.073,0,0,0,.523.962,10.972,10.972,0,0,0,.79.865v0a.5.5,0,1,1-.715.7.515.515,0,0,1-.043-.05"
     style="fill:#dbddda"
     id="path96" />
  <path
     d="M38.308,2.229a10.963,10.963,0,0,0,.79-.864A3.1,3.1,0,0,0,39.62.4h0a.34.34,0,0,1,.655.179,4.042,4.042,0,0,1-.184.643,3.826,3.826,0,0,1-.3.61,11.555,11.555,0,0,1-.729,1.05.5.5,0,1,1-.8-.6.472.472,0,0,1,.041-.048Z"
     style="fill:#dbddda"
     id="path97" />
  <path
     d="m 25.253,99.464045 h -7.37 a 0.567,0.567 0 0 1 -0.567,-0.567 v -4.535 a 0.567,0.567 0 0 1 0.567,-0.567 h 7.37 a 0.567,0.567 0 0 1 0.567,0.567 v 4.535 a 0.567,0.567 0 0 1 -0.567,0.567"
     style="fill:#dbddda"
     id="path98" />
  <rect
     x="16.06918"
     y="55.693001"
     width="5.6690001"
     height="8.5039997"
     style="fill:#2a2d2e"
     id="rect98" />
  <rect
     x="34.24"
     y="31.853"
     width="7.087"
     height="7.087"
     style="fill:#2a2d2e"
     id="rect99" />
  <rect
     x="44.467"
     y="19.591"
     width="4.252"
     height="7.086"
     style="fill:#2a2d2e"
     id="rect100" />
  <path
     d="M16.093,32.836h7.37a.567.567,0,0,1,.567.566v10.2a.567.567,0,0,1-.567.568h-7.37a.567.567,0,0,1-.567-.568V33.4a.567.567,0,0,1,.567-.566"
     style="fill:#ccc"
     id="path100" />
  <path
     d="M19.778,33.544h0a3.544,3.544,0,0,1,3.544,3.544v2.835a3.544,3.544,0,0,1-7.087,0V37.088a3.544,3.544,0,0,1,3.543-3.544"
     style="fill:#fff"
     id="path101" />
  <path
     d="M15.526,33.4v1.064a.567.567,0,0,0,.968.4L17.558,33.8a.566.566,0,0,0-.4-.967H16.093a.567.567,0,0,0-.567.566"
     style="fill:#fff"
     id="path102" />
  <path
     d="M23.463,32.836H22.4a.567.567,0,0,0-.4.968l1.065,1.064a.566.566,0,0,0,.967-.4V33.4a.567.567,0,0,0-.566-.566"
     style="fill:#fff"
     id="path103" />
  <path
     d="M24.03,43.577V42.513a.567.567,0,0,0-.968-.4L22,43.177a.566.566,0,0,0,.4.967h1.066a.567.567,0,0,0,.566-.567"
     style="fill:#fff"
     id="path104" />
  <path
     d="M16.093,44.145h1.064a.567.567,0,0,0,.4-.968l-1.065-1.064a.566.566,0,0,0-.967.4v1.065a.567.567,0,0,0,.567.567"
     style="fill:#fff"
     id="path105" />
  <path
     d="M43.757,38.373V32.42a.567.567,0,0,1,.567-.567H48.86a.567.567,0,0,1,.567.567v5.953a.567.567,0,0,1-.567.567H44.324a.567.567,0,0,1-.567-.567"
     style="fill:#2a2d2e"
     id="path106" />
  <path
     d="m 33.878365,61.00085 v -4.799065 a 0.68444503,0.45709215 0 0 1 0.684445,-0.457092 h 5.47556 a 0.68444503,0.45709215 0 0 1 0.684445,0.457092 V 61.00085 A 0.68444503,0.45709215 0 0 1 40.03837,61.457942 H 34.56281 A 0.68444503,0.45709215 0 0 1 33.878365,61.00085"
     style="fill:#2a2d2e;stroke-width:0.999996"
     id="path106-9" />
  <rect
     x="34.948"
     y="40.195"
     width="5.67"
     height="4.252"
     style="fill:#dbddda"
     id="rect106" />
  <rect
     x="-48.561249"
     y="-55.487"
     width="1.002502"
     height="2.3740005"
     style="fill:#dbddda;stroke-width:0.999996"
     id="rect107-7"
     transform="scale(-1)" />
  <rect
     x="-49.582184"
     y="-59.278"
     width="1.002502"
     height="2.3740005"
     style="fill:#dbddda;stroke-width:0.999996"
     id="rect107-7-3"
     transform="scale(-1)" />
  <rect
     x="-47.357658"
     y="-59.278"
     width="1.002502"
     height="2.3740005"
     style="fill:#dbddda;stroke-width:0.999996"
     id="rect107-7-3-7"
     transform="scale(-1)" />
  <rect
     x="34.948"
     y="26.269"
     width="5.67"
     height="4.252"
     style="fill:#dbddda"
     id="rect109" />
  <rect
     x="35.657"
     y="26.269"
     width="4.252"
     height="4.252"
     style="fill:#958863"
     id="rect110" />
  <rect
     x="35.657"
     y="40.195"
     width="4.252"
     height="4.252"
     style="fill:#958863"
     id="rect111" />
  <path
     d="M46.882,131.945a1.2,1.2,0,1,1-1.2,1.2,1.2,1.2,0,0,1,1.2-1.2"
     style="fill:#9a916c"
     id="path111" />
  <path
     d="M13.434,25.013a1.2,1.2,0,1,1-1.2,1.2,1.2,1.2,0,0,1,1.2-1.2"
     style="fill:#9a916c"
     id="path112" />
  <rect
     x="20.413"
     y="25.597"
     width="2.835"
     height="1.418"
     style="fill:#dbddda"
     id="rect112" />
  <rect
     x="20.767"
     y="25.597"
     width="2.126"
     height="1.418"
     style="fill:#2a2d2e"
     id="rect113" />
  <rect
     x="45.934"
     y="55.487"
     width="4.252"
     height="1.417"
     style="fill:#2a2d2e"
     id="rect117" />
  <rect
     x="42.442001"
     y="58.528"
     width="1.4170001"
     height="2.8340001"
     style="fill:#dbddda"
     id="rect119" />
  <rect
     x="42.442001"
     y="58.881001"
     width="1.4170001"
     height="2.1270001"
     style="fill:#2a2d2e"
     id="rect120" />
  <rect
     x="42.442001"
     y="63.29274"
     width="1.4170001"
     height="2.8340001"
     style="fill:#dbddda"
     id="rect121" />
  <rect
     x="42.442001"
     y="63.645741"
     width="1.4170001"
     height="2.1270001"
     style="fill:#9a916c"
     id="rect122" />
  <rect
     x="46.147907"
     y="63.29274"
     width="1.4170001"
     height="2.8340001"
     style="fill:#dbddda"
     id="rect121-9" />
  <rect
     x="46.147907"
     y="63.645741"
     width="1.4170001"
     height="2.1270001"
     style="fill:#9a916c"
     id="rect122-7" />
  <rect
     x="48.539909"
     y="63.132496"
     width="1.063"
     height="2.1270001"
     style="fill:#dbddda"
     id="rect123" />
  <rect
     x="48.539909"
     y="63.487495"
     width="1.063"
     height="1.418"
     style="fill:#2a2d2e"
     id="rect124" />
  <rect
     x="49.080933"
     y="49.176003"
     width="1.063"
     height="2.1270001"
     style="fill:#dbddda"
     id="rect123-7" />
  <rect
     x="49.080933"
     y="49.530998"
     width="1.063"
     height="1.418"
     style="fill:#2a2d2e"
     id="rect124-6" />
  <rect
     x="47.212681"
     y="49.176003"
     width="1.063"
     height="2.1270001"
     style="fill:#dbddda"
     id="rect123-7-2" />
  <rect
     x="47.212681"
     y="49.530998"
     width="1.063"
     height="1.418"
     style="fill:#2a2d2e"
     id="rect124-6-7" />
  <rect
     x="45.357643"
     y="49.175507"
     width="1.063"
     height="2.1270001"
     style="fill:#dbddda"
     id="rect123-7-2-0" />
  <rect
     x="45.357643"
     y="49.530502"
     width="1.063"
     height="1.418"
     style="fill:#2a2d2e"
     id="rect124-6-7-3" />
  <rect
     x="26.593987"
     y="60.021614"
     width="1.062"
     height="2.1270001"
     style="fill:#dbddda"
     id="rect125" />
  <rect
     x="26.593987"
     y="60.376614"
     width="1.062"
     height="1.418"
     style="fill:#2a2d2e"
     id="rect126" />
  <rect
     x="28.26"
     y="60.021614"
     width="1.062"
     height="2.1270001"
     style="fill:#dbddda"
     id="rect125-6" />
  <rect
     x="28.26"
     y="60.376614"
     width="1.062"
     height="1.418"
     style="fill:#2a2d2e"
     id="rect126-5" />
  <rect
     x="50.577915"
     y="63.133495"
     width="1.062"
     height="2.1259999"
     style="fill:#dbddda"
     id="rect129" />
  <rect
     x="50.577915"
     y="63.488499"
     width="1.062"
     height="1.4170001"
     style="fill:#9a916c"
     id="rect130" />
  <rect
     x="16.04718"
     y="52.163002"
     width="1.062"
     height="2.1259999"
     style="fill:#dbddda"
     id="rect133" />
  <rect
     x="16.04718"
     y="52.517002"
     width="1.062"
     height="1.4170001"
     style="fill:#9a916c"
     id="rect134" />
  <rect
     x="26.866499"
     y="90.522499"
     width="1.063"
     height="2.1259999"
     style="fill:#dbddda"
     id="rect135" />
  <rect
     x="26.866499"
     y="90.877502"
     width="1.063"
     height="1.4170001"
     style="fill:#9a916c"
     id="rect136" />
  <rect
     x="24.252502"
     y="89.350227"
     width="1.062"
     height="2.1259999"
     style="fill:#dbddda"
     id="rect137" />
  <rect
     x="24.252502"
     y="89.705231"
     width="1.062"
     height="1.4170001"
     style="fill:#9a916c"
     id="rect138" />
  <rect
     x="26.414499"
     y="93.79454"
     width="1.062"
     height="2.1259999"
     style="fill:#dbddda"
     id="rect139" />
  <rect
     x="26.414499"
     y="94.148544"
     width="1.062"
     height="1.418"
     style="fill:#9a916c"
     id="rect140" />
  <rect
     x="26.414499"
     y="96.629547"
     width="1.062"
     height="2.1259999"
     style="fill:#dbddda"
     id="rect139-3" />
  <rect
     x="26.414499"
     y="96.983521"
     width="1.062"
     height="1.418"
     style="fill:#9a916c"
     id="rect140-9" />
  <rect
     x="15.659502"
     y="96.629547"
     width="1.062"
     height="2.1259999"
     style="fill:#dbddda"
     id="rect141" />
  <rect
     x="15.659502"
     y="96.98455"
     width="1.062"
     height="1.4170001"
     style="fill:#9a916c"
     id="rect142" />
  <rect
     x="65.55378"
     y="-38.961533"
     width="1.4170001"
     height="2.8340001"
     style="fill:#dbddda"
     id="rect143"
     transform="rotate(90)" />
  <rect
     x="65.553276"
     y="-38.608032"
     width="1.4170001"
     height="2.1270001"
     style="fill:#9a916c"
     id="rect144"
     transform="rotate(90)" />
  <rect
     x="63.569431"
     y="-38.961533"
     width="1.4170001"
     height="2.8340001"
     style="fill:#dbddda"
     id="rect145"
     transform="rotate(90)" />
  <rect
     x="63.568932"
     y="-38.608032"
     width="1.4170001"
     height="2.1270001"
     style="fill:#9a916c"
     id="rect146"
     transform="rotate(90)" />
  <rect
     x="20.413"
     y="23.134"
     width="2.835"
     height="1.417"
     style="fill:#dbddda"
     id="rect147" />
  <rect
     x="20.767"
     y="23.134"
     width="2.126"
     height="1.417"
     style="fill:#2a2d2e"
     id="rect148" />
  <rect
     x="36.366"
     y="23.134"
     width="2.835"
     height="1.417"
     style="fill:#dbddda"
     id="rect149" />
  <rect
     x="36.72"
     y="23.134"
     width="2.126"
     height="1.417"
     style="fill:#2a2d2e"
     id="rect150" />
  <rect
     x="13.292179"
     y="55.693001"
     width="1.4170001"
     height="2.835"
     style="fill:#dbddda"
     id="rect151" />
  <rect
     x="13.292179"
     y="56.047001"
     width="1.4170001"
     height="2.1259999"
     style="fill:#2a2d2e"
     id="rect152" />
  <rect
     x="13.292179"
     y="61.363003"
     width="1.4170001"
     height="2.8340001"
     style="fill:#dbddda"
     id="rect153" />
  <rect
     x="13.292179"
     y="61.716003"
     width="1.4170001"
     height="2.1270001"
     style="fill:#2a2d2e"
     id="rect154" />
  <rect
     x="45.323475"
     y="-50.498432"
     width="1.4170001"
     height="2.835"
     style="fill:#dbddda"
     id="rect155"
     transform="rotate(90)" />
  <rect
     x="45.322975"
     y="-50.143932"
     width="1.4170001"
     height="2.1259999"
     style="fill:#2a2d2e"
     id="rect156"
     transform="rotate(90)" />
  <rect
     x="41.379"
     y="69.121"
     width="2.126"
     height="1.062"
     style="fill:#dbddda"
     id="rect157" />
  <rect
     x="41.733"
     y="69.121"
     width="1.418"
     height="1.062"
     style="fill:#9a916c"
     id="rect158" />
  <rect
     x="15.825"
     y="70.214"
     width="2.126"
     height="1.062"
     style="fill:#dbddda"
     id="rect159" />
  <rect
     x="16.179"
     y="70.214"
     width="1.417"
     height="1.062"
     style="fill:#9a916c"
     id="rect160" />
  <rect
     x="15.825"
     y="80.718"
     width="2.126"
     height="1.063"
     style="fill:#dbddda"
     id="rect161" />
  <rect
     x="16.179"
     y="80.718"
     width="1.417"
     height="1.063"
     style="fill:#9a916c"
     id="rect162" />
  <rect
     x="14.762"
     y="75.413002"
     width="2.1259999"
     height="1.063"
     style="fill:#dbddda"
     id="rect161-9" />
  <rect
     x="15.116"
     y="75.413002"
     width="1.4170001"
     height="1.063"
     style="fill:#9a916c"
     id="rect162-9" />
  <rect
     x="41.734001"
     y="76.050194"
     width="2.1259999"
     height="1.063"
     style="fill:#dbddda"
     id="rect161-0" />
  <rect
     x="42.088001"
     y="76.050194"
     width="1.4170001"
     height="1.063"
     style="fill:#9a916c"
     id="rect162-5" />
  <rect
     x="41.734501"
     y="78.616501"
     width="2.1259999"
     height="1.063"
     style="fill:#dbddda"
     id="rect161-0-2" />
  <rect
     x="42.088501"
     y="78.616501"
     width="1.4170001"
     height="1.063"
     style="fill:#9a916c"
     id="rect162-5-2" />
  <rect
     x="-37.138306"
     y="90.193802"
     width="1.063"
     height="2.1259999"
     transform="rotate(-45)"
     style="fill:#dbddda"
     id="rect163" />
  <rect
     x="-37.19846"
     y="90.524689"
     width="1.063"
     height="1.4170001"
     transform="rotate(-45.038)"
     style="fill:#9a916c"
     id="rect164" />
  <rect
     x="-26.79563"
     y="65.425819"
     width="1.063"
     height="2.1259999"
     transform="rotate(-45)"
     style="fill:#dbddda"
     id="rect163-9" />
  <rect
     x="-26.839357"
     y="65.763573"
     width="1.063"
     height="1.4170001"
     transform="rotate(-45.038)"
     style="fill:#9a916c"
     id="rect164-8" />
  <rect
     x="45.408001"
     y="78.548698"
     width="2.3615"
     height="1.3083023"
     style="fill:#dbddda;stroke-width:1"
     id="rect165" />
  <rect
     x="45.703709"
     y="78.548698"
     width="1.7709166"
     height="1.3083023"
     style="fill:#2a2d2e;stroke-width:1"
     id="rect166" />
  <rect
     x="45.408001"
     y="78.548698"
     width="2.3615"
     height="1.3083023"
     style="fill:#dbddda;stroke-width:1"
     id="rect167" />
  <rect
     x="45.703709"
     y="78.548698"
     width="1.7709166"
     height="1.3083023"
     style="fill:#2a2d2e;stroke-width:1"
     id="rect168" />
  <rect
     x="45.408001"
     y="76.050194"
     width="2.3615"
     height="1.3073797"
     style="fill:#dbddda;stroke-width:1"
     id="rect169" />
  <rect
     x="45.703709"
     y="76.050194"
     width="1.7709166"
     height="1.3073797"
     style="fill:#2a2d2e;stroke-width:1"
     id="rect170" />
  <rect
     x="14.762"
     y="67.503"
     width="2.835"
     height="1.418"
     style="fill:#dbddda"
     id="rect171" />
  <rect
     x="15.116"
     y="67.503"
     width="2.126"
     height="1.418"
     style="fill:#9a916c"
     id="rect172" />
  <rect
     x="90.763313"
     y="37.899364"
     width="2.185667"
     height="1.0928335"
     style="fill:#dbddda;stroke-width:1.00054"
     id="rect173"
     transform="matrix(0.69044906,0.72338102,-0.69044906,0.72338102,0,0)" />
  <rect
     x="91.035789"
     y="37.899914"
     width="1.6396358"
     height="1.0928335"
     style="fill:#2a2d2e;stroke-width:1.00054"
     id="rect174"
     transform="matrix(0.69044906,0.72338102,-0.69044906,0.72338102,0,0)" />
  <rect
     x="90.763313"
     y="37.899364"
     width="2.185667"
     height="1.0928335"
     style="fill:#dbddda;stroke-width:1.00054"
     id="rect175"
     transform="matrix(0.69044906,0.72338102,-0.69044906,0.72338102,0,0)" />
  <rect
     x="91.035789"
     y="37.899914"
     width="1.6396358"
     height="1.0928335"
     style="fill:#2a2d2e;stroke-width:1.00054"
     id="rect176"
     transform="matrix(0.69044906,0.72338102,-0.69044906,0.72338102,0,0)" />
  <rect
     x="90.763313"
     y="39.538616"
     width="2.185667"
     height="1.0928335"
     style="fill:#dbddda;stroke-width:1.00054"
     id="rect173-0"
     transform="matrix(0.69044906,0.72338102,-0.69044906,0.72338102,0,0)" />
  <rect
     x="91.035789"
     y="39.539162"
     width="1.6396358"
     height="1.0928335"
     style="fill:#2a2d2e;stroke-width:1.00054"
     id="rect174-2"
     transform="matrix(0.69044906,0.72338102,-0.69044906,0.72338102,0,0)" />
  <rect
     x="90.763313"
     y="39.538616"
     width="2.185667"
     height="1.0928335"
     style="fill:#dbddda;stroke-width:1.00054"
     id="rect175-4"
     transform="matrix(0.69044906,0.72338102,-0.69044906,0.72338102,0,0)" />
  <rect
     x="91.035789"
     y="39.539162"
     width="1.6396358"
     height="1.0928335"
     style="fill:#2a2d2e;stroke-width:1.00054"
     id="rect176-8"
     transform="matrix(0.69044906,0.72338102,-0.69044906,0.72338102,0,0)" />
  <path
     d="M38.427,121.829l-.207-.309a4.054,4.054,0,0,0-2.374-4.026c.362-.1.775-.207.878-.671a.987.987,0,0,0,.877-.774c.155-.1.775-.465.671-.98a.834.834,0,0,0,.413-.929c.361-.361.464-.671.31-.981a.747.747,0,0,0,.051-1.084c.31-.567.052-1.187-.826-1.084a1.371,1.371,0,0,0-1.238-.413.835.835,0,0,0-.826-.257,1.015,1.015,0,0,0-1.135-.1c-.465-.361-.774-.052-1.136.052-.567-.206-.722.052-.98.155-.619-.155-.825.154-1.135.465h-.361a4.308,4.308,0,0,0-1.6,2.219,3.64,3.64,0,0,0-1.6-2.219h-.362c-.309-.311-.464-.568-1.135-.465-.257-.1-.413-.361-.98-.155a3.776,3.776,0,0,0-.723-.206.983.983,0,0,0-.465.154,1.013,1.013,0,0,0-1.134.1c-.517-.052-.723.051-.826.257-.1,0-.877-.1-1.239.413-.878-.1-1.135.516-.826,1.084a.787.787,0,0,0,.052,1.084c-.154.31-.052.62.309.981a.868.868,0,0,0,.413.929c-.051.567.517.877.671.98.052.31.207.619.878.774.1.464.516.568.877.671a4.1,4.1,0,0,0-2.374,4.026l-.207.309a3.966,3.966,0,0,0-.721,5.987,12.459,12.459,0,0,0,.567,1.806,4.542,4.542,0,0,0,2.787,3.509,10.624,10.624,0,0,0,2.632,1.5,4.448,4.448,0,0,0,3.251,1.445h.052a4.454,4.454,0,0,0,3.252-1.445,8.565,8.565,0,0,0,2.631-1.5,4.355,4.355,0,0,0,2.787-3.509,12.415,12.415,0,0,0,.568-1.806,3.8,3.8,0,0,0-.517-5.987m-1.084-.413c-.051.929-5.006-3.3-4.18-3.458,2.322-.361,4.232.981,4.18,3.458m-2.218,4.7a2.93,2.93,0,0,1-3.975-1.136,2.888,2.888,0,0,1,.517-4.076,2.926,2.926,0,0,1,3.973,1.134,2.876,2.876,0,0,1-.515,4.078m-3.407-14.605c.052.206.1.361.155.361a6.539,6.539,0,0,1,.826-.878c0,.156-.1.362.1.465a3.3,3.3,0,0,1,.775-.671c-.155.258-.052.362.051.465a2.908,2.908,0,0,1,.981-.62c-.155.155-.31.31-.1.517a3.44,3.44,0,0,1,1.188-.465c-.155.155-.465.309-.258.465a7.289,7.289,0,0,1,1.135-.259c-.206.155-.361.31-.206.465a2.844,2.844,0,0,1,1.342-.155l-.31.31a5.668,5.668,0,0,0,1.187.052,3.075,3.075,0,0,0-.464.928c.051.052.309,0,.515,0-.257.516-.671.62-.722.826a.557.557,0,0,0,.567,0c-.154.361-.516.568-.825.878.052.051.206.1.515.051a7.3,7.3,0,0,1-.928.774,2.818,2.818,0,0,0,.515.1,5.588,5.588,0,0,1-1.186.723.669.669,0,0,0,.516.1,3.876,3.876,0,0,1-1.239.516c.1.155.155.155.362.206-.465.259-1.188.155-1.394.259.052.154.155.206.361.31-.774.051-2.889-.052-3.3-1.652a16.227,16.227,0,0,1,4.748-3.148,15.434,15.434,0,0,0-5.161,2.735c-1.806-.826-.62-2.839.258-3.664m-1.755,5.831h0c1.239,0,2.736.878,2.736,1.755,0,.774-1.084,1.394-2.736,1.342-1.651,0-2.735-.775-2.735-1.5,0-.619,1.342-1.652,2.735-1.6m-6.245-.671c.207-.052.259-.052.362-.206a3.931,3.931,0,0,1-1.239-.516.673.673,0,0,0,.516-.1,5.645,5.645,0,0,1-1.187-.723c.206,0,.464,0,.516-.1a3.373,3.373,0,0,1-.929-.775.7.7,0,0,0,.516-.051,6.65,6.65,0,0,1-.825-.877.722.722,0,0,0,.567,0c-.1-.206-.515-.362-.722-.826.207,0,.464.051.516,0a3.094,3.094,0,0,0-.465-.929,5.383,5.383,0,0,0,1.188-.052l-.311-.31a2.315,2.315,0,0,1,1.342.156c.155-.1,0-.258-.206-.465a7.419,7.419,0,0,1,1.136.258c.154-.155-.1-.31-.259-.464a2.914,2.914,0,0,1,1.187.464c.206-.206,0-.362-.1-.516a2.907,2.907,0,0,1,.98.619c.1-.1.207-.206.052-.464a2.035,2.035,0,0,1,.775.67c.206-.154.1-.309.1-.464a4.442,4.442,0,0,1,.825.877.784.784,0,0,0,.156-.361c.825.826,2.012,2.839.309,3.612a16.44,16.44,0,0,0-5.161-2.734,17.4,17.4,0,0,1,4.748,3.147c-.413,1.6-2.529,1.7-3.3,1.652a.548.548,0,0,0,.362-.31,4.165,4.165,0,0,1-1.446-.206m3.045,1.239c.878.155-4.077,4.387-4.179,3.457-.052-2.476,1.857-3.818,4.179-3.457m-5.212,9.444a3.148,3.148,0,0,1,.619-5.006c1.342-.31.465,5.522-.619,5.006m4.593,5.007c-.671.412-2.322.257-3.509-1.394-.774-1.393-.671-2.787-.155-3.2.825-.516,2.116.155,3.1,1.29.877.98,1.29,2.787.567,3.3m3.819,2.838c-1.5.051-2.942-1.187-2.942-1.652,0-.619,1.807-1.136,2.994-1.136,1.187-.05,2.838.362,2.838.981.052.568-1.444,1.807-2.89,1.807m2.994-6.348a2.883,2.883,0,0,1-2.994,2.735,2.85,2.85,0,0,1-2.993-2.735V128.8a2.884,2.884,0,0,1,2.993-2.735,2.926,2.926,0,0,1,2.994,2.787m4.18,2.168c-1.291,1.754-2.993,1.805-3.665,1.342-.671-.621-.154-2.581.775-3.664,1.084-1.188,2.219-1.962,2.993-1.343a3.355,3.355,0,0,1-.1,3.665m1.135-3.716c-1.084.464-1.961-5.316-.619-5.007a3.12,3.12,0,0,1,.619,5.007m-13.3-1.053a2.931,2.931,0,0,1-.688-4.077,2.887,2.887,0,0,1,3.9-1.289,2.927,2.927,0,0,1,.689,4.074,2.877,2.877,0,0,1-3.9,1.292"
     style="fill:#fff"
     id="path176" />
  <path
     d="M33.271,75.838l-.084-.125a1.641,1.641,0,0,0-.96-1.63c.146-.042.313-.083.355-.271a.4.4,0,0,0,.355-.314c.063-.042.313-.187.272-.4a.337.337,0,0,0,.167-.376c.145-.146.187-.272.125-.4a.3.3,0,0,0,.02-.438c.126-.231.022-.481-.334-.439a.553.553,0,0,0-.5-.168.34.34,0,0,0-.335-.1.41.41,0,0,0-.459-.042c-.189-.146-.314-.021-.46.021-.23-.084-.293.021-.4.063-.25-.063-.334.062-.459.187H30.43a1.749,1.749,0,0,0-.648.9,1.477,1.477,0,0,0-.647-.9h-.147a.427.427,0,0,0-.46-.187c-.1-.042-.167-.147-.4-.063a1.559,1.559,0,0,0-.293-.084.4.4,0,0,0-.188.063.411.411,0,0,0-.46.042c-.209-.021-.293.021-.334.1-.042,0-.355-.042-.5.168-.355-.042-.459.209-.334.439a.318.318,0,0,0,.021.438c-.063.125-.021.251.125.4a.35.35,0,0,0,.168.376c-.022.23.209.355.271.4.021.125.083.251.356.314.041.187.209.229.354.271a1.662,1.662,0,0,0-.961,1.63l-.083.125a1.606,1.606,0,0,0-.293,2.424,5.13,5.13,0,0,0,.23.73,1.84,1.84,0,0,0,1.129,1.421,4.289,4.289,0,0,0,1.065.607,1.806,1.806,0,0,0,1.317.585h.02a1.806,1.806,0,0,0,1.317-.585,3.478,3.478,0,0,0,1.065-.607,1.763,1.763,0,0,0,1.128-1.421,4.89,4.89,0,0,0,.229-.73,1.536,1.536,0,0,0-.208-2.424m-.439-.167c-.02.376-2.026-1.337-1.692-1.4a1.353,1.353,0,0,1,1.692,1.4m-.9,1.9a1.186,1.186,0,0,1-1.609-.46,1.17,1.17,0,0,1,.209-1.651,1.185,1.185,0,0,1,1.609.46,1.164,1.164,0,0,1-.209,1.651m-1.379-5.914c.021.084.042.147.063.147a2.815,2.815,0,0,1,.334-.356c0,.064-.042.147.042.189a1.292,1.292,0,0,1,.314-.272c-.064.1-.022.147.02.188a1.2,1.2,0,0,1,.4-.251c-.063.063-.125.126-.041.21a1.368,1.368,0,0,1,.48-.189c-.063.063-.188.125-.1.189a2.915,2.915,0,0,1,.459-.1c-.083.063-.146.125-.083.188a1.143,1.143,0,0,1,.543-.063l-.125.125a2.185,2.185,0,0,0,.48.022,1.22,1.22,0,0,0-.188.376c.021.02.125,0,.208,0-.1.208-.271.25-.292.334a.225.225,0,0,0,.23,0c-.063.146-.209.229-.334.355.021.021.083.041.208.021a2.9,2.9,0,0,1-.376.313,1.207,1.207,0,0,0,.209.042,2.233,2.233,0,0,1-.48.292.27.27,0,0,0,.209.042,1.553,1.553,0,0,1-.5.209c.042.063.062.063.146.084-.188.105-.48.063-.564.105.02.062.062.083.146.125-.313.02-1.17-.021-1.337-.669a6.59,6.59,0,0,1,1.922-1.275,6.284,6.284,0,0,0-2.09,1.108c-.73-.334-.25-1.149.105-1.484m-.71,2.362h0c.5,0,1.107.354,1.107.71,0,.313-.438.564-1.107.543-.669,0-1.108-.314-1.108-.606,0-.251.543-.669,1.108-.647m-2.529-.272c.084-.021.105-.021.147-.084a1.543,1.543,0,0,1-.5-.209.27.27,0,0,0,.209-.041,2.31,2.31,0,0,1-.481-.293c.083,0,.188,0,.209-.042a1.343,1.343,0,0,1-.376-.313.278.278,0,0,0,.208-.021,2.74,2.74,0,0,1-.334-.355.291.291,0,0,0,.23,0c-.041-.083-.209-.146-.292-.334.083,0,.187.02.209,0a1.232,1.232,0,0,0-.189-.376,2.182,2.182,0,0,0,.481-.021l-.125-.126a.932.932,0,0,1,.543.063c.062-.041,0-.1-.083-.188a2.98,2.98,0,0,1,.46.1c.062-.063-.042-.125-.105-.189a1.2,1.2,0,0,1,.481.189c.083-.084,0-.147-.042-.209a1.165,1.165,0,0,1,.4.251c.042-.042.084-.084.022-.189a.819.819,0,0,1,.312.272c.084-.063.042-.125.042-.188a1.772,1.772,0,0,1,.335.355.336.336,0,0,0,.063-.146c.334.334.814,1.149.125,1.462a6.663,6.663,0,0,0-2.089-1.107,7.068,7.068,0,0,1,1.922,1.274c-.167.649-1.024.69-1.337.669a.219.219,0,0,0,.146-.125,1.685,1.685,0,0,1-.586-.084m1.234.5c.354.063-1.652,1.777-1.693,1.4a1.355,1.355,0,0,1,1.693-1.4m-2.111,3.824a1.275,1.275,0,0,1,.251-2.027c.543-.125.188,2.235-.251,2.027M28.3,80.1a1.191,1.191,0,0,1-1.421-.564c-.314-.564-.272-1.128-.063-1.3.334-.208.857.064,1.253.523.356.4.523,1.128.231,1.337m-.543-2.465a1.281,1.281,0,1,1,1.608-.46,1.188,1.188,0,0,1-1.608.46m2.089,3.614a1.325,1.325,0,0,1-1.191-.669c0-.25.731-.459,1.211-.459.481-.021,1.15.146,1.15.4.02.229-.585.731-1.17.731m1.212-2.569a1.168,1.168,0,0,1-1.212,1.107,1.154,1.154,0,0,1-1.212-1.107v-.022a1.168,1.168,0,0,1,1.212-1.107,1.185,1.185,0,0,1,1.212,1.129m1.692.877c-.522.71-1.212.731-1.483.543-.272-.25-.063-1.045.313-1.484.439-.48.9-.793,1.211-.542a1.356,1.356,0,0,1-.041,1.483m.459-1.5c-.438.187-.794-2.152-.25-2.026a1.262,1.262,0,0,1,.25,2.026"
     style="fill:#3d3f38"
     id="path193" />
  <rect
     x="11.473"
     y="17.009"
     width="4.252"
     height="2.835"
     style="fill:#ecf6fd"
     id="rect193" />
  <path
     d="M12.946,17.793a.709.709,0,1,1-.709.709.708.708,0,0,1,.709-.709"
     style="fill:#3c3"
     id="path194" />
</svg>
